<svg viewBox="0 0 2089 1830" fill="none" xmlns="http://www.w3.org/2000/svg">
  <g clip-path="url(#clip0)">
    <path fill-rule="evenodd" clip-rule="evenodd" d="M144.277 1258.41C97.662 1304.62 72 1355.11 72 1408C72 1628.91 519.715 1808 1072 1808C1624.28 1808 2072 1628.91 2072 1408C2072 1343.2 2033.48 1282 1965.09 1227.86C2043.56 1104.12 2089 957.366 2089 800C2089 358.172 1730.83 0 1289 0C1203.73 0 1121.57 13.3419 1044.5 38.0522C967.432 13.3419 885.274 0 800 0C358.172 0 0 358.172 0 800C0 970.525 53.3533 1128.59 144.277 1258.41Z" fill="white" />
    <g style="mix-blend-mode:screen">
      <path d="M1253.4 1355.49L1367.75 1421.52C1369.2 1422.35 1370.4 1423.55 1371.24 1424.99C1372.07 1426.43 1372.51 1428.07 1372.51 1429.74C1372.51 1431.41 1372.07 1433.04 1371.24 1434.49C1370.4 1435.93 1369.2 1437.13 1367.75 1437.96L1172.61 1550.53C1168.35 1553 1163.51 1554.3 1158.59 1554.3C1153.67 1554.3 1148.83 1553 1144.57 1550.53L1020.8 1479.09" stroke="#0C223A" stroke-miterlimit="10" />
    </g>
    <g style="mix-blend-mode:screen">
      <path d="M519.91 989.325L729.344 868.456C733.604 865.987 738.44 864.687 743.363 864.687C748.286 864.687 753.122 865.987 757.382 868.456L921.264 963.067" stroke="#0C223A" stroke-miterlimit="10" />
    </g>
    <g style="mix-blend-mode:screen">
      <path d="M1694.6 1320.83L1619.67 1364.11C1615.41 1366.56 1610.58 1367.86 1605.67 1367.86C1600.75 1367.86 1595.92 1366.56 1591.66 1364.11L1427.78 1269.5" stroke="#0C223A" stroke-miterlimit="10" />
    </g>
    <path style="mix-blend-mode:multiply" d="M652.246 988.356L577.792 945.422C573.199 943.099 568.123 941.888 562.975 941.888C557.827 941.888 552.751 943.099 548.158 945.422L473.756 988.356C471.973 988.965 470.424 990.117 469.328 991.649C468.232 993.182 467.642 995.019 467.642 996.904C467.642 998.788 468.232 1000.63 469.328 1002.16C470.424 1003.69 471.973 1004.84 473.756 1005.45L519.02 1031.63V1052H562.975C568.136 1052.09 573.236 1050.86 577.792 1048.44L652.246 1005.48C654.03 1004.87 655.578 1003.72 656.674 1002.18C657.771 1000.65 658.36 998.814 658.36 996.93C658.36 995.045 657.771 993.208 656.674 991.675C655.578 990.143 654.03 988.991 652.246 988.383V988.356Z" fill="url(#paint0_linear)" />
    <path style="mix-blend-mode:multiply" d="M1786.02 1311.12L1732.03 1279.97C1728.71 1278.28 1725.03 1277.4 1721.3 1277.4C1717.57 1277.4 1713.89 1278.28 1710.57 1279.97L1656.61 1311.12C1655.31 1311.56 1654.18 1312.39 1653.38 1313.5C1652.58 1314.62 1652.15 1315.95 1652.15 1317.32C1652.15 1318.7 1652.58 1320.03 1653.38 1321.15C1654.18 1322.26 1655.31 1323.09 1656.61 1323.53L1689.44 1342.48V1357.25H1721.3C1725.04 1357.3 1728.74 1356.4 1732.03 1354.63L1786.02 1323.48C1787.32 1323.04 1788.45 1322.21 1789.25 1321.09C1790.05 1319.98 1790.48 1318.64 1790.48 1317.27C1790.48 1315.9 1790.05 1314.56 1789.25 1313.45C1788.45 1312.34 1787.32 1311.5 1786.02 1311.07V1311.12Z" fill="url(#paint1_linear)" />
    <path style="mix-blend-mode:multiply" d="M1208.01 1466.63L1098.81 1403.56C1092.08 1400.15 1084.63 1398.38 1077.08 1398.38C1069.53 1398.38 1062.09 1400.15 1055.35 1403.56L952.81 1466.63C946.789 1470.08 943.804 1474.48 943.804 1479.16C943.804 1483.85 946.789 1488.25 952.81 1491.7L1019.23 1530.06V1559.95H1077.08C1084.65 1560.1 1092.14 1558.3 1098.81 1554.72L1208.01 1491.68C1214.03 1488.22 1217.01 1483.67 1217.01 1479.14C1217.01 1474.61 1214.03 1470.05 1208.01 1466.63Z" fill="url(#paint2_linear)" />
    <path d="M1001.08 1521.37L905.373 1466.1C900.137 1463.06 897.519 1459.09 897.519 1455.11C897.519 1451.13 900.137 1447.25 905.373 1444.11L1001.08 1388.9C1006.99 1385.9 1013.51 1384.34 1020.13 1384.34C1026.75 1384.34 1033.27 1385.9 1039.18 1388.9L1134.89 1444.16C1140.12 1447.2 1142.74 1451.18 1142.74 1455.16C1142.74 1459.14 1140.12 1463.01 1134.89 1466.15L1039.18 1521.37C1033.27 1524.36 1026.75 1525.92 1020.13 1525.92C1013.51 1525.92 1006.99 1524.36 1001.08 1521.37Z" fill="#EBF5FF" />
    <path d="M1020.12 1515.45C1015.32 1515.57 1010.58 1514.48 1006.32 1512.28L910.609 1456.96C910.317 1457.03 910.013 1457.03 909.721 1456.97C909.428 1456.9 909.154 1456.77 908.919 1456.59C908.684 1456.4 908.495 1456.16 908.364 1455.89C908.234 1455.62 908.166 1455.33 908.166 1455.03C908.166 1454.73 908.234 1454.43 908.364 1454.16C908.495 1453.89 908.684 1453.65 908.919 1453.47C909.154 1453.28 909.428 1453.15 909.721 1453.09C910.013 1453.02 910.317 1453.02 910.609 1453.09L1006.32 1397.85C1010.63 1395.77 1015.35 1394.68 1020.13 1394.68C1024.91 1394.68 1029.63 1395.77 1033.94 1397.85L1129.65 1453.09C1130.57 1453.6 1131.4 1454.25 1132.11 1455.03C1131.41 1455.81 1130.58 1456.46 1129.65 1456.96L1033.94 1512.2C1029.68 1514.43 1024.92 1515.55 1020.12 1515.45Z" fill="#00EEE7" />
    <path d="M1134.89 1466.1L1039.18 1521.37C1033.27 1524.36 1026.75 1525.92 1020.13 1525.92C1013.51 1525.92 1006.99 1524.36 1001.08 1521.37L905.373 1466.1C900.137 1463.06 897.519 1459.09 897.519 1455.11V1489.14C897.519 1493.12 900.137 1496.99 905.373 1500.13L1001.08 1555.4C1006.99 1558.39 1013.51 1559.95 1020.13 1559.95C1026.75 1559.95 1033.27 1558.39 1039.18 1555.4L1134.89 1500.13C1140.12 1497.1 1142.74 1493.12 1142.74 1489.14V1455.11C1142.77 1459.09 1140.15 1463.06 1134.89 1466.1Z" fill="url(#paint3_linear)" />
    <g style="mix-blend-mode:screen">
      <path style="mix-blend-mode:screen" d="M1052.21 1445.81C1051.64 1445.36 1050.96 1445.06 1050.24 1444.94C1049.53 1444.82 1048.79 1444.89 1048.1 1445.13L991.712 1463.46C990.272 1463.93 989.749 1464.97 990.586 1465.84C991.164 1466.28 991.842 1466.57 992.559 1466.68C993.276 1466.8 994.011 1466.73 994.697 1466.49L1051.09 1448.04C1052.53 1447.7 1053.05 1446.65 1052.21 1445.81ZM1026.29 1441.31C1026.58 1440.37 1025.51 1439.45 1023.86 1439.27L989.304 1435.58C988.401 1435.47 987.488 1435.65 986.686 1436.07C985.979 1436.47 985.665 1437.07 985.848 1437.62L992.236 1457.59C992.55 1458.53 994.121 1459.16 995.77 1458.98C997.419 1458.8 998.388 1457.91 998.178 1456.94L992.576 1439.48L1022.81 1442.72C1024.41 1442.88 1025.98 1442.25 1026.29 1441.26V1441.31ZM1058.02 1475.29L1051.64 1455.34C1051.32 1454.4 1049.75 1453.77 1048.1 1453.93C1046.45 1454.08 1045.48 1455.03 1045.69 1455.97L1051.27 1473.43L1021.03 1470.21C1019.38 1470.03 1017.81 1470.66 1017.5 1471.6C1017.18 1472.54 1018.28 1473.46 1019.93 1473.64L1054.49 1477.33C1055.39 1477.43 1056.3 1477.27 1057.11 1476.86C1058.02 1476.41 1058.21 1475.84 1058.02 1475.29Z" fill="url(#paint4_linear)" />
    </g>
    <path d="M504.229 1021.84L429.723 978.88C427.939 978.271 426.391 977.119 425.295 975.587C424.198 974.054 423.609 972.217 423.609 970.332C423.609 968.448 424.198 966.61 425.295 965.077C426.391 963.545 427.939 962.393 429.723 961.785L504.15 918.824C508.739 916.501 513.811 915.291 518.955 915.291C524.098 915.291 529.17 916.501 533.759 918.824L608.16 961.785C612.27 964.141 614.312 967.23 614.312 970.345C614.312 973.46 612.27 976.523 608.16 978.88L533.759 1021.84C529.175 1024.18 524.101 1025.4 518.955 1025.4C513.808 1025.4 508.734 1024.18 504.15 1021.84H504.229Z" fill="#EBF5FF" />
    <path d="M519.02 1017.15C515.294 1017.24 511.605 1016.39 508.287 1014.69L433.886 971.733C433.165 971.353 432.518 970.847 431.974 970.24C432.522 969.631 433.168 969.117 433.886 968.722L508.261 925.867C511.612 924.263 515.279 923.431 518.994 923.431C522.709 923.431 526.377 924.263 529.728 925.867L604.155 968.827C604.873 969.222 605.519 969.735 606.066 970.345C605.523 970.952 604.876 971.457 604.155 971.837L529.754 1014.8C526.428 1016.46 522.738 1017.27 519.02 1017.15Z" fill="#00EEE7" />
    <path d="M608.239 978.879L533.838 1021.84C529.253 1024.18 524.18 1025.4 519.033 1025.4C513.886 1025.4 508.813 1024.18 504.229 1021.84L429.723 978.879C428.04 978.122 426.588 976.934 425.512 975.436C424.436 973.937 423.776 972.181 423.597 970.345V996.786C423.771 998.626 424.43 1000.39 425.506 1001.89C426.582 1003.4 428.037 1004.59 429.723 1005.35L504.15 1048.31C508.739 1050.63 513.811 1051.84 518.955 1051.84C524.098 1051.84 529.17 1050.63 533.759 1048.31L608.16 1005.35C612.27 1002.99 614.313 999.901 614.313 996.786V970.345C614.391 973.434 612.349 976.523 608.239 978.879Z" fill="url(#paint5_linear)" />
    <path style="mix-blend-mode:screen" d="M542.581 979.822L526.691 970.659L542.581 961.497L535.775 957.57L519.91 966.733L504.02 957.57L497.239 961.497L513.104 970.659L497.239 979.822L504.02 983.749L519.91 974.586L535.775 983.749L542.581 979.822Z" fill="url(#paint6_linear)" />
    <path d="M1680.07 1325.91L1632.95 1298.71C1631.82 1298.32 1630.84 1297.59 1630.15 1296.62C1629.46 1295.65 1629.08 1294.48 1629.08 1293.29C1629.08 1292.1 1629.46 1290.94 1630.15 1289.96C1630.84 1288.99 1631.82 1288.26 1632.95 1287.87L1680.07 1260.67C1682.97 1259.19 1686.18 1258.42 1689.44 1258.42C1692.7 1258.42 1695.91 1259.19 1698.81 1260.67L1745.94 1287.87C1747.08 1288.25 1748.07 1288.98 1748.77 1289.95C1749.47 1290.92 1749.85 1292.09 1749.85 1293.29C1749.85 1294.49 1749.47 1295.66 1748.77 1296.64C1748.07 1297.61 1747.08 1298.33 1745.94 1298.71L1698.81 1325.91C1695.91 1327.39 1692.7 1328.16 1689.44 1328.16C1686.18 1328.16 1682.97 1327.39 1680.07 1325.91Z" fill="#EBF5FF" />
    <path d="M1745.94 1298.71L1698.81 1325.91C1695.91 1327.39 1692.7 1328.16 1689.44 1328.16C1686.18 1328.16 1682.97 1327.39 1680.07 1325.91L1632.95 1298.71C1631.88 1298.24 1630.95 1297.48 1630.27 1296.53C1629.59 1295.58 1629.18 1294.46 1629.07 1293.29V1322.38C1629.18 1323.54 1629.59 1324.66 1630.27 1325.61C1630.95 1326.57 1631.88 1327.32 1632.95 1327.8L1680.07 1355C1682.97 1356.48 1686.18 1357.25 1689.44 1357.25C1692.7 1357.25 1695.91 1356.48 1698.81 1355L1745.94 1327.8C1747.01 1327.32 1747.94 1326.57 1748.62 1325.62C1749.31 1324.66 1749.73 1323.55 1749.84 1322.38V1293.29C1749.73 1294.46 1749.31 1295.58 1748.62 1296.53C1747.94 1297.48 1747.01 1298.24 1745.94 1298.71Z" fill="url(#paint7_linear)" />
    <path d="M1689.44 1307.72C1703.25 1307.72 1714.44 1301.26 1714.44 1293.29C1714.44 1285.33 1703.25 1278.87 1689.44 1278.87C1675.63 1278.87 1664.44 1285.33 1664.44 1293.29C1664.44 1301.26 1675.63 1307.72 1689.44 1307.72Z" fill="#00EEE7" />
    <path style="mix-blend-mode:screen" d="M1689.44 1307.72C1703.25 1307.72 1714.44 1301.26 1714.44 1293.29C1714.44 1285.33 1703.25 1278.87 1689.44 1278.87C1675.63 1278.87 1664.44 1285.33 1664.44 1293.29C1664.44 1301.26 1675.63 1307.72 1689.44 1307.72Z" fill="url(#paint8_linear)" />
    <g style="mix-blend-mode:screen">
      <g style="mix-blend-mode:screen">
        <path d="M1717.53 1099.41L1711.48 1095.93V1069.01L1704.28 1067.42V1061.82L1716.88 1063.86L1717.53 1064.25V1099.41Z" fill="white" />
      </g>
      <g style="mix-blend-mode:screen">
        <path d="M1717.53 1034.72L1711.48 1031.24V1004.33L1704.28 1002.73V997.1L1716.88 999.168L1717.53 999.56V1034.72Z" fill="white" />
      </g>
      <g style="mix-blend-mode:screen">
        <path d="M1721.17 1151.66C1721.17 1156.53 1720.31 1159.73 1718.55 1161.3C1716.8 1162.87 1714.26 1162.68 1710.91 1160.75C1707.6 1158.86 1704.95 1156.01 1703.29 1152.58C1701.49 1148.69 1700.59 1144.45 1700.67 1140.17V1133.7C1700.67 1128.81 1701.56 1125.59 1703.29 1124.07C1705.02 1122.55 1707.61 1122.73 1710.91 1124.64C1714.21 1126.54 1716.86 1129.39 1718.53 1132.81C1720.32 1136.69 1721.22 1140.92 1721.14 1145.2L1721.17 1151.66ZM1715.15 1141.19C1715.24 1138.82 1714.88 1136.46 1714.1 1134.23C1713.51 1132.61 1712.37 1131.24 1710.88 1130.38C1709.47 1129.54 1708.42 1129.54 1707.74 1130.38C1706.9 1131.99 1706.53 1133.8 1706.67 1135.61V1144.17C1706.59 1146.54 1706.93 1148.9 1707.69 1151.14C1708.25 1152.81 1709.41 1154.21 1710.93 1155.09C1712.4 1155.96 1713.55 1155.9 1714.13 1154.96C1714.95 1153.23 1715.3 1151.32 1715.15 1149.41V1141.19Z" fill="white" />
      </g>
      <g style="mix-blend-mode:screen">
        <path d="M1381.36 492.129L1375.32 488.647V461.761L1368.09 460.164V454.535L1380.68 456.604L1381.34 456.97L1381.36 492.129Z" fill="#00C1AA" />
      </g>
      <g style="mix-blend-mode:screen">
        <path d="M1385.03 415.032C1385.03 419.901 1384.14 423.095 1382.41 424.665C1380.68 426.236 1378.12 426.053 1374.77 424.116C1371.47 422.224 1368.82 419.376 1367.17 415.948C1365.36 412.067 1364.47 407.821 1364.56 403.539V397.073C1364.56 392.177 1365.42 388.957 1367.17 387.439C1368.93 385.92 1371.49 386.103 1374.82 388.015C1378.11 389.914 1380.76 392.76 1382.41 396.183C1384.21 400.059 1385.1 404.293 1385.03 408.565V415.032ZM1378.98 404.56C1379.07 402.196 1378.72 399.836 1377.96 397.596C1377.35 395.979 1376.2 394.621 1374.71 393.748C1373.3 392.91 1372.25 392.91 1371.57 393.748C1370.74 395.363 1370.37 397.173 1370.5 398.984V407.544C1370.42 409.908 1370.77 412.267 1371.52 414.508C1372.09 416.173 1373.24 417.576 1374.77 418.461C1376.23 419.325 1377.38 419.273 1377.96 418.33C1378.78 416.601 1379.13 414.688 1378.98 412.78V404.56Z" fill="#00C1AA" />
      </g>
      <g style="mix-blend-mode:screen">
        <path d="M1717.53 646.561L1711.48 643.079V616.167L1704.28 614.57V608.941L1716.88 611.009L1717.53 611.402V646.561Z" fill="white" />
      </g>
      <g style="mix-blend-mode:screen">
        <path d="M1721.17 569.489C1721.17 574.332 1720.31 577.552 1718.55 579.123C1716.8 580.693 1714.26 580.51 1710.91 578.547C1707.6 576.663 1704.94 573.813 1703.29 570.379C1701.49 566.494 1700.59 562.251 1700.67 557.97V551.504C1700.67 546.608 1701.56 543.388 1703.29 541.87C1705.02 540.351 1707.61 540.561 1710.91 542.472C1714.21 544.36 1716.86 547.197 1718.53 550.614C1720.33 554.499 1721.22 558.741 1721.14 563.022L1721.17 569.489ZM1715.15 558.886C1715.24 556.52 1714.88 554.157 1714.1 551.923C1713.51 550.302 1712.37 548.94 1710.88 548.074C1709.47 547.271 1708.42 547.271 1707.74 548.074C1706.91 549.687 1706.53 551.499 1706.67 553.31V561.844C1706.59 564.217 1706.93 566.584 1707.69 568.834C1708.27 570.496 1709.42 571.897 1710.93 572.787C1712.4 573.651 1713.55 573.573 1714.13 572.63C1714.95 570.901 1715.3 568.988 1715.15 567.08V558.886Z" fill="white" />
      </g>
      <g style="mix-blend-mode:screen">
        <path d="M1721.17 763.503C1721.17 768.372 1720.31 771.566 1718.55 773.137C1716.8 774.707 1714.26 774.524 1710.91 772.587C1707.6 770.696 1704.95 767.849 1703.29 764.419C1701.49 760.534 1700.59 756.291 1700.67 752.01V745.544C1700.67 740.622 1701.56 737.428 1703.29 735.91C1705.02 734.391 1707.61 734.575 1710.91 736.486C1714.21 738.384 1716.86 741.23 1718.53 744.654C1720.32 748.53 1721.22 752.764 1721.14 757.036L1721.17 763.503ZM1715.15 753.031C1715.24 750.665 1714.88 748.302 1714.1 746.067C1713.51 744.447 1712.37 743.085 1710.88 742.219C1709.47 741.381 1708.42 741.381 1707.74 742.219C1706.9 743.83 1706.53 745.644 1706.67 747.455V756.015C1706.59 758.379 1706.94 760.737 1707.69 762.979C1708.26 764.644 1709.41 766.047 1710.93 766.932C1712.4 767.796 1713.55 767.744 1714.13 766.801C1714.95 765.072 1715.3 763.159 1715.15 761.251V753.031Z" fill="white" />
      </g>
      <g style="mix-blend-mode:screen">
        <path d="M1721.17 698.814C1721.17 703.683 1720.31 706.877 1718.55 708.448C1716.8 710.019 1714.26 709.836 1710.91 707.898C1707.6 706.008 1704.95 703.16 1703.29 699.73C1701.49 695.837 1700.59 691.585 1700.67 687.295V680.855C1700.67 675.933 1701.56 672.74 1703.29 671.195C1705.02 669.65 1707.61 669.886 1710.91 671.797C1714.21 673.695 1716.86 676.541 1718.53 679.965C1720.33 683.84 1721.22 688.075 1721.14 692.348L1721.17 698.814ZM1715.15 688.342C1715.24 685.967 1714.89 683.596 1714.1 681.353C1713.5 679.736 1712.37 678.377 1710.88 677.504C1709.47 676.684 1708.42 676.684 1707.74 677.504C1706.91 679.118 1706.54 680.929 1706.67 682.74V691.301C1706.59 693.664 1706.94 696.022 1707.69 698.264C1708.26 699.929 1709.41 701.332 1710.93 702.217C1712.4 703.081 1713.55 703.029 1714.13 702.06C1714.95 700.332 1715.3 698.418 1715.15 696.51V688.342Z" fill="white" />
      </g>
      <g style="mix-blend-mode:screen">
        <path d="M1661.51 1196.45L1655.46 1192.95V1166.06L1648.26 1164.46V1158.83L1660.85 1160.9L1661.51 1161.3V1196.45Z" fill="white" />
      </g>
      <g style="mix-blend-mode:screen">
        <path d="M1665.15 1119.25C1665.15 1124.1 1664.28 1127.32 1662.53 1128.89C1660.77 1130.46 1658.24 1130.27 1654.86 1128.31C1651.57 1126.41 1648.92 1123.56 1647.27 1120.14C1645.47 1116.26 1644.57 1112.01 1644.65 1107.73V1101.27C1644.65 1096.37 1645.54 1093.15 1647.27 1091.63C1648.99 1090.11 1651.56 1090.32 1654.88 1092.21C1658.18 1094.11 1660.82 1096.95 1662.48 1100.38C1664.29 1104.26 1665.18 1108.5 1665.09 1112.79L1665.15 1119.25ZM1659.13 1108.78C1659.2 1106.41 1658.85 1104.05 1658.08 1101.82C1657.49 1100.2 1656.35 1098.83 1654.86 1097.97C1653.44 1097.15 1652.4 1097.15 1651.72 1097.97C1650.87 1099.58 1650.5 1101.39 1650.64 1103.2V1111.74C1650.56 1114.11 1650.91 1116.48 1651.66 1118.73C1652.24 1120.39 1653.39 1121.79 1654.91 1122.68C1656.38 1123.52 1657.53 1123.47 1658.1 1122.52C1658.92 1120.8 1659.28 1118.88 1659.13 1116.97V1108.78Z" fill="white" />
      </g>
      <g style="mix-blend-mode:screen">
        <path d="M1773.55 872.985L1767.48 869.503V842.591L1760.28 840.994V835.392L1772.87 837.434L1773.53 837.826L1773.55 872.985Z" fill="white" />
      </g>
      <g style="mix-blend-mode:screen">
        <path d="M1773.55 614.203L1767.51 610.721V583.835L1760.31 582.238V576.609L1772.9 578.678L1773.55 579.044V614.203Z" fill="white" />
      </g>
      <g style="mix-blend-mode:screen">
        <path d="M1661.51 549.514L1655.46 546.032V519.12L1648.26 517.523V511.895L1660.85 513.963L1661.51 514.329V549.514Z" fill="white" />
      </g>
      <g style="mix-blend-mode:screen">
        <path d="M1661.51 484.825L1655.46 481.343V454.431L1648.26 452.834V447.232L1660.85 449.274L1661.51 449.667V484.825Z" fill="white" />
      </g>
      <g style="mix-blend-mode:screen">
        <path d="M1777.19 537.079C1777.19 541.948 1776.33 545.142 1774.58 546.713C1772.82 548.283 1770.28 548.1 1766.93 546.163C1763.63 544.272 1760.97 541.425 1759.31 537.995C1757.51 534.11 1756.62 529.867 1756.7 525.586V519.12C1756.7 514.198 1757.59 511.004 1759.31 509.486C1761.04 507.967 1763.63 508.151 1766.93 510.062C1770.23 511.96 1772.89 514.806 1774.55 518.23C1776.35 522.105 1777.25 526.34 1777.17 530.612L1777.19 537.079ZM1771.17 526.607C1771.27 524.24 1770.91 521.878 1770.13 519.643C1769.54 518.023 1768.4 516.661 1766.91 515.795C1765.49 514.957 1764.44 514.957 1763.76 515.795C1762.92 517.406 1762.55 519.219 1762.69 521.031V529.591C1762.61 531.955 1762.96 534.313 1763.71 536.555C1764.28 538.22 1765.44 539.623 1766.96 540.508C1768.42 541.372 1769.58 541.32 1770.15 540.377C1770.97 538.647 1771.32 536.735 1771.17 534.827V526.607Z" fill="white" />
      </g>
      <g style="mix-blend-mode:screen">
        <path d="M1437.39 484.825L1431.37 481.343V454.431L1424.14 452.834V447.232L1436.73 449.274L1437.39 449.667V484.825Z" fill="white" />
      </g>
      <g style="mix-blend-mode:screen">
        <path d="M1437.39 420.11L1431.37 416.629V389.743L1424.14 388.146V382.517L1436.73 384.585L1437.39 384.978V420.11Z" fill="white" />
      </g>
      <g style="mix-blend-mode:screen">
        <path d="M1441.05 343.012C1441.05 347.855 1440.19 351.076 1438.43 352.646C1436.68 354.217 1434.17 354.034 1430.79 352.07C1427.49 350.178 1424.84 347.33 1423.2 343.902C1421.39 340.021 1420.49 335.776 1420.58 331.493V325.027C1420.58 320.132 1421.44 316.912 1423.2 315.393C1424.95 313.875 1427.49 314.058 1430.82 315.969C1434.1 317.877 1436.75 320.72 1438.41 324.137C1440.21 328.022 1441.1 332.265 1441.03 336.546L1441.05 343.012ZM1435 332.41C1435.09 330.046 1434.74 327.686 1433.98 325.446C1433.37 323.829 1432.23 322.471 1430.74 321.598C1429.32 320.777 1428.28 320.777 1427.6 321.598C1426.77 323.214 1426.4 325.023 1426.52 326.834V335.368C1426.45 337.74 1426.79 340.107 1427.54 342.358C1428.13 344.014 1429.28 345.412 1430.79 346.311C1432.26 347.149 1433.41 347.096 1433.98 346.154C1434.8 344.425 1435.16 342.511 1435 340.604V332.41Z" fill="white" />
      </g>
      <g style="mix-blend-mode:screen">
        <path d="M1441.05 537.079C1441.05 541.948 1440.19 545.142 1438.43 546.713C1436.68 548.283 1434.17 548.1 1430.79 546.163C1427.49 544.271 1424.84 541.423 1423.2 537.995C1421.39 534.114 1420.49 529.868 1420.58 525.586V519.12C1420.58 514.198 1421.44 511.004 1423.2 509.486C1424.95 507.967 1427.49 508.151 1430.82 510.062C1434.11 511.961 1436.75 514.807 1438.41 518.23C1440.21 522.105 1441.11 526.34 1441.03 530.612L1441.05 537.079ZM1435 526.607C1435.09 524.234 1434.74 521.866 1433.98 519.617C1433.37 518.005 1432.22 516.648 1430.74 515.769C1429.32 514.957 1428.28 514.983 1427.6 515.769C1426.77 517.384 1426.4 519.194 1426.52 521.005V529.565C1426.45 531.929 1426.79 534.287 1427.54 536.529C1428.12 538.189 1429.27 539.59 1430.79 540.482C1432.26 541.346 1433.41 541.294 1433.98 540.325C1434.8 538.605 1435.16 536.7 1435 534.801V526.607Z" fill="white" />
      </g>
      <g style="mix-blend-mode:screen">
        <path d="M1661.51 872.985L1655.46 869.503V842.591L1648.26 840.994V835.392L1660.85 837.434L1661.51 837.826V872.985Z" fill="#00C1AA" />
      </g>
      <g style="mix-blend-mode:screen">
        <path d="M1661.51 808.296L1655.46 804.788V777.902L1648.26 776.305V770.676L1660.85 772.744L1661.51 773.137V808.296Z" fill="#00C1AA" />
      </g>
      <g style="mix-blend-mode:screen">
        <path d="M1325.34 316.859L1319.29 313.377V286.465L1312.09 284.868V279.266L1324.69 281.308L1325.34 281.7V316.859Z" fill="white" />
      </g>
      <g style="mix-blend-mode:screen">
        <path d="M1269.32 362.673L1263.27 359.191V332.357L1256.07 330.76V325.158L1268.66 327.2L1269.32 327.593V362.673Z" fill="#00C1AA" />
      </g>
      <g style="mix-blend-mode:screen">
        <path d="M1665.15 925.238C1665.15 930.107 1664.28 933.301 1662.53 934.872C1660.77 936.443 1658.24 936.259 1654.86 934.322C1651.57 932.422 1648.92 929.577 1647.27 926.154C1645.47 922.269 1644.57 918.026 1644.65 913.745V907.201C1644.65 902.279 1645.54 899.085 1647.27 897.567C1648.99 896.048 1651.56 896.231 1654.88 898.143C1658.18 900.035 1660.83 902.883 1662.48 906.31C1664.29 910.181 1665.19 914.419 1665.09 918.693L1665.15 925.238ZM1659.13 914.766C1659.21 912.401 1658.85 910.04 1658.08 907.803C1657.49 906.182 1656.35 904.82 1654.86 903.954C1653.44 903.117 1652.4 903.117 1651.72 903.954C1650.86 905.56 1650.49 907.378 1650.64 909.19V917.672C1650.57 920.036 1650.91 922.394 1651.66 924.636C1652.24 926.301 1653.39 927.704 1654.91 928.589C1656.38 929.453 1657.53 929.401 1658.1 928.589C1658.92 926.859 1659.27 924.946 1659.13 923.039V914.766Z" fill="#00C1AA" />
      </g>
      <g style="mix-blend-mode:screen">
        <path d="M1773.55 1261.14L1767.51 1257.66V1230.75L1760.31 1229.15V1223.55L1772.9 1225.59L1773.55 1225.99V1261.14Z" fill="white" />
      </g>
      <g style="mix-blend-mode:screen">
        <path d="M1777.19 1184.02C1777.19 1188.86 1776.33 1192.08 1774.58 1193.65C1772.82 1195.22 1770.28 1195.04 1766.93 1193.08C1763.63 1191.2 1760.97 1188.36 1759.31 1184.94C1757.52 1181.04 1756.62 1176.79 1756.7 1172.5V1166.03C1756.7 1161.14 1757.59 1157.92 1759.31 1156.4C1761.04 1154.88 1763.63 1155.09 1766.93 1157C1770.23 1158.9 1772.89 1161.75 1774.55 1165.17C1776.35 1169.05 1777.25 1173.28 1777.17 1177.55L1777.19 1184.02ZM1771.17 1173.55C1771.26 1171.18 1770.91 1168.82 1770.13 1166.58C1769.53 1164.97 1768.39 1163.61 1766.91 1162.74C1765.49 1161.93 1764.44 1161.93 1763.76 1162.74C1762.93 1164.35 1762.56 1166.16 1762.69 1167.97V1176.53C1762.61 1178.9 1762.96 1181.25 1763.71 1183.5C1764.29 1185.16 1765.44 1186.56 1766.96 1187.45C1768.42 1188.31 1769.58 1188.26 1770.15 1187.29C1770.97 1185.56 1771.32 1183.65 1771.17 1181.74V1173.55Z" fill="white" />
      </g>
      <g style="mix-blend-mode:screen">
        <path d="M1773.55 1002.36L1767.48 998.828V971.994L1760.28 970.397V964.795L1772.87 966.863L1773.53 967.23L1773.55 1002.36Z" fill="white" />
      </g>
      <g style="mix-blend-mode:screen">
        <path d="M1777.19 925.238C1777.19 930.107 1776.33 933.301 1774.58 934.872C1772.82 936.443 1770.28 936.259 1766.93 934.322C1763.63 932.432 1760.97 929.584 1759.31 926.154C1757.51 922.269 1756.62 918.026 1756.7 913.745V907.201C1756.7 902.279 1757.59 899.085 1759.31 897.567C1761.04 896.048 1763.63 896.231 1766.93 898.143C1770.23 900.041 1772.89 902.886 1774.55 906.31C1776.35 910.186 1777.24 914.421 1777.17 918.693L1777.19 925.238ZM1771.17 914.766C1771.27 912.4 1770.91 910.037 1770.13 907.803C1769.54 906.182 1768.4 904.82 1766.91 903.954C1765.49 903.117 1764.44 903.117 1763.76 903.954C1762.92 905.565 1762.55 907.379 1762.69 909.19V917.672C1762.61 920.036 1762.96 922.394 1763.71 924.636C1764.28 926.301 1765.44 927.704 1766.96 928.589C1768.42 929.453 1769.58 929.401 1770.15 928.589C1770.97 926.859 1771.32 924.946 1771.17 923.039V914.766Z" fill="white" />
      </g>
      <g style="mix-blend-mode:screen">
        <path d="M1777.19 1119.25C1777.19 1124.1 1776.33 1127.32 1774.58 1128.89C1772.82 1130.46 1770.28 1130.27 1766.93 1128.31C1763.63 1126.42 1760.97 1123.57 1759.31 1120.14C1757.51 1116.26 1756.62 1112.01 1756.7 1107.73V1101.27C1756.7 1096.37 1757.59 1093.15 1759.31 1091.63C1761.04 1090.11 1763.63 1090.32 1766.93 1092.24C1770.23 1094.12 1772.88 1096.96 1774.55 1100.38C1776.35 1104.26 1777.24 1108.51 1777.17 1112.79L1777.19 1119.25ZM1771.17 1108.78C1771.26 1106.41 1770.91 1104.05 1770.13 1101.82C1769.54 1100.2 1768.4 1098.83 1766.91 1097.97C1765.49 1097.15 1764.44 1097.15 1763.76 1097.97C1762.93 1099.58 1762.56 1101.39 1762.69 1103.2V1111.74C1762.61 1114.11 1762.96 1116.48 1763.71 1118.73C1764.29 1120.39 1765.44 1121.79 1766.96 1122.68C1768.42 1123.52 1769.58 1123.47 1770.15 1122.52C1770.97 1120.8 1771.32 1118.88 1771.17 1116.97V1108.78Z" fill="white" />
      </g>
      <g style="mix-blend-mode:screen">
        <path d="M1777.19 1054.62C1777.19 1059.49 1776.33 1062.71 1774.58 1064.25C1772.82 1065.79 1770.28 1065.66 1766.93 1063.7C1763.63 1061.81 1760.97 1058.96 1759.31 1055.53C1757.51 1051.65 1756.62 1047.4 1756.7 1043.12V1036.66C1756.7 1031.76 1757.59 1028.54 1759.31 1027.02C1761.04 1025.5 1763.63 1025.69 1766.93 1027.6C1770.23 1029.5 1772.89 1032.34 1774.55 1035.77C1776.35 1039.65 1777.24 1043.89 1777.17 1048.18L1777.19 1054.62ZM1771.17 1044.14C1771.26 1041.78 1770.91 1039.42 1770.13 1037.18C1769.54 1035.56 1768.4 1034.2 1766.91 1033.33C1765.49 1032.51 1764.44 1032.51 1763.76 1033.33C1762.93 1034.94 1762.56 1036.76 1762.69 1038.57V1047.1C1762.61 1049.47 1762.96 1051.82 1763.71 1054.07C1764.28 1055.74 1765.43 1057.15 1766.96 1058.05C1768.42 1058.88 1769.58 1058.83 1770.15 1057.89C1770.97 1056.16 1771.32 1054.25 1771.17 1052.34V1044.14Z" fill="white" />
      </g>
      <g style="mix-blend-mode:screen">
        <path d="M989.173 808.27L983.152 804.788V777.902L975.952 776.305V770.676L988.571 772.744L989.199 773.111L989.173 808.27Z" fill="white" />
      </g>
      <g style="mix-blend-mode:screen">
        <path d="M989.173 678.892L983.152 675.41V648.524L975.952 646.927V641.298L988.571 643.367L989.199 643.733L989.173 678.892Z" fill="white" />
      </g>
      <g style="mix-blend-mode:screen">
        <path d="M989.173 614.203L983.152 610.721V583.809L975.952 582.212V576.609L988.571 578.678L989.199 579.044L989.173 614.203Z" fill="white" />
      </g>
      <g style="mix-blend-mode:screen">
        <path d="M992.838 537.079C992.838 541.948 991.974 545.142 990.22 546.713C988.466 548.283 985.953 548.1 982.576 546.163C979.283 544.263 976.638 541.417 974.984 537.995C973.181 534.101 972.286 529.85 972.366 525.56V519.12C972.366 514.198 973.23 511.004 974.984 509.46C976.738 507.915 979.277 508.151 982.602 510.062C985.894 511.961 988.539 514.807 990.194 518.23C991.996 522.105 992.891 526.34 992.812 530.612L992.838 537.079ZM986.79 526.607C986.889 524.234 986.542 521.863 985.769 519.617C985.146 518.017 984.015 516.665 982.549 515.769C981.118 514.966 980.071 514.966 979.408 515.769C978.561 517.378 978.18 519.191 978.308 521.005V529.565C978.224 531.927 978.561 534.285 979.303 536.529C979.884 538.189 981.034 539.59 982.549 540.482C984.042 541.346 985.167 541.294 985.743 540.325C986.565 538.597 986.917 536.682 986.764 534.775L986.79 526.607Z" fill="white" />
      </g>
      <g style="mix-blend-mode:screen">
        <path d="M992.838 731.146C992.838 736.015 991.974 739.235 990.22 740.78C988.466 742.324 985.953 742.193 982.576 740.23C979.283 738.33 976.638 735.484 974.984 732.062C973.184 728.177 972.288 723.934 972.366 719.653V713.187C972.366 708.291 973.23 705.071 974.984 703.553C976.738 702.034 979.277 702.218 982.602 704.129C985.894 706.028 988.54 708.874 990.194 712.297C991.994 716.182 992.889 720.424 992.812 724.706L992.838 731.146ZM986.79 720.674C986.889 718.309 986.543 715.947 985.77 713.71C985.162 712.101 984.027 710.744 982.549 709.862C981.118 709.059 980.071 709.059 979.408 709.862C978.561 711.471 978.18 713.284 978.308 715.098V723.632C978.222 725.994 978.559 728.353 979.303 730.596C979.882 732.263 981.032 733.673 982.549 734.575C984.042 735.413 985.167 735.36 985.743 734.418C986.563 732.689 986.915 730.775 986.764 728.868L986.79 720.674Z" fill="white" />
      </g>
      <g style="mix-blend-mode:screen">
        <path d="M992.838 178.607C992.838 183.476 991.974 186.67 990.22 188.241C988.466 189.811 985.953 189.628 982.576 187.691C979.283 185.791 976.638 182.945 974.984 179.523C973.184 175.638 972.288 171.395 972.366 167.114V160.648C972.366 155.726 973.23 152.532 974.984 151.014C976.738 149.495 979.277 149.679 982.602 151.59C985.894 153.49 988.54 156.335 990.194 159.758C991.996 163.633 992.892 167.868 992.812 172.14L992.838 178.607ZM986.79 168.135C986.892 165.77 986.545 163.408 985.77 161.171C985.162 159.562 984.027 158.205 982.549 157.323C981.118 156.485 980.071 156.485 979.408 157.323C978.556 158.93 978.175 160.745 978.308 162.559V171.12C978.224 173.481 978.561 175.839 979.303 178.083C979.884 179.743 981.034 181.144 982.549 182.036C984.042 182.9 985.167 182.848 985.743 181.879C986.563 180.16 986.915 178.254 986.764 176.355L986.79 168.135Z" fill="#00C1AA" />
      </g>
      <g style="mix-blend-mode:screen">
        <path d="M933.149 775.938L927.128 772.456V745.544L919.902 743.947V738.345L932.495 740.413L933.149 740.779V775.938Z" fill="#00C1AA" />
      </g>
      <g style="mix-blend-mode:screen">
        <path d="M936.814 698.814C936.814 703.683 935.95 706.877 934.196 708.448C932.442 710.019 929.929 709.835 926.552 707.898C923.254 706.006 920.606 703.158 918.96 699.73C917.148 695.84 916.253 691.586 916.342 687.295V680.855C916.342 675.933 917.206 672.713 918.96 671.195C920.714 669.677 923.253 669.886 926.578 671.797C929.871 673.697 932.516 676.543 934.17 679.965C935.973 683.84 936.868 688.075 936.788 692.348L936.814 698.814ZM930.767 688.342C930.851 685.978 930.505 683.619 929.746 681.379C929.129 679.766 927.985 678.41 926.5 677.53C925.086 676.71 924.039 676.71 923.358 677.53C922.535 679.147 922.164 680.956 922.285 682.766V691.327C922.208 693.69 922.554 696.048 923.306 698.29C923.886 699.951 925.037 701.351 926.552 702.243C928.044 703.107 929.17 703.055 929.746 702.086C930.566 700.357 930.918 698.444 930.767 696.536V688.342Z" fill="#00C1AA" />
      </g>
      <g style="mix-blend-mode:screen">
        <path d="M936.814 634.125C936.814 638.968 935.95 642.188 934.196 643.759C932.442 645.33 929.929 645.147 926.552 643.183C923.248 641.298 920.599 638.448 918.96 635.015C917.148 631.134 916.253 626.889 916.342 622.606V616.14C916.342 611.245 917.206 608.025 918.96 606.506C920.714 604.988 923.253 605.197 926.578 607.108C929.871 609.008 932.516 611.854 934.17 615.276C935.973 619.151 936.868 623.386 936.788 627.659L936.814 634.125ZM930.767 623.523C930.846 621.176 930.5 618.835 929.746 616.611C929.137 614.994 927.991 613.636 926.5 612.763C925.086 611.943 924.039 611.943 923.358 612.763C922.534 614.379 922.164 616.189 922.285 617.999V626.533C922.206 628.905 922.552 631.273 923.306 633.523C923.894 635.179 925.042 636.577 926.552 637.476C928.044 638.34 929.17 638.262 929.746 637.319C930.566 635.59 930.918 633.677 930.767 631.769V623.523Z" fill="#00C1AA" />
      </g>
      <g style="mix-blend-mode:screen">
        <path d="M1045.2 466.028L1039.18 462.52V435.634L1031.98 434.037V428.409L1044.57 430.477L1045.22 430.87L1045.2 466.028Z" fill="white" />
      </g>
      <g style="mix-blend-mode:screen">
        <path d="M1045.2 530.718L1039.18 527.236V500.324L1031.98 498.727V493.124L1044.57 495.166L1045.22 495.559L1045.2 530.718Z" fill="white" />
      </g>
      <g style="mix-blend-mode:screen">
        <path d="M1045.2 336.624L1039.18 333.143V306.256L1031.98 304.66V299.031L1044.57 301.099L1045.22 301.466L1045.2 336.624Z" fill="white" />
      </g>
      <g style="mix-blend-mode:screen">
        <path d="M1045.2 271.936L1039.18 268.428V241.568L1031.98 239.971V234.395L1044.57 236.463L1045.22 236.829L1045.2 271.936Z" fill="white" />
      </g>
      <g style="mix-blend-mode:screen">
        <path d="M933.149 207.247L927.128 203.765V176.8L919.902 175.203V169.601L932.495 171.669L933.149 172.036V207.247Z" fill="white" />
      </g>
      <g style="mix-blend-mode:screen">
        <path d="M936.814 259.5C936.814 264.37 935.95 267.563 934.196 269.134C932.442 270.705 929.929 270.522 926.552 268.584C923.253 266.692 920.606 263.844 918.96 260.417C917.148 256.535 916.253 252.29 916.342 248.008V241.541C916.342 236.646 917.206 233.426 918.96 231.907C920.714 230.389 923.253 230.572 926.578 232.483C929.871 234.383 932.516 237.229 934.17 240.651C935.967 244.528 936.862 248.762 936.788 253.034L936.814 259.5ZM930.767 249.029C930.852 246.665 930.506 244.305 929.746 242.065C929.137 240.448 927.991 239.09 926.5 238.217C925.086 237.379 924.039 237.379 923.358 238.217C922.529 239.831 922.158 241.642 922.285 243.452V252.013C922.206 254.377 922.552 256.735 923.306 258.977C923.878 260.641 925.03 262.045 926.552 262.93C928.044 263.794 929.17 263.741 929.746 262.93C930.566 261.201 930.918 259.287 930.767 257.38V249.029Z" fill="white" />
      </g>
      <g style="mix-blend-mode:screen">
        <path d="M1048.86 388.852C1048.86 393.695 1048 396.915 1046.24 398.486C1044.49 400.057 1041.98 399.873 1038.6 397.91C1035.31 396.01 1032.66 393.164 1031.01 389.742C1029.21 385.857 1028.31 381.614 1028.39 377.333V370.867C1028.39 365.971 1029.28 362.751 1031.01 361.233C1032.73 359.714 1035.3 359.924 1038.63 361.809C1041.91 363.716 1044.55 366.56 1046.22 369.977C1048.03 373.858 1048.92 378.103 1048.84 382.386L1048.86 388.852ZM1042.84 378.38C1042.92 376.015 1042.56 373.654 1041.79 371.417C1041.19 369.802 1040.06 368.442 1038.57 367.568C1037.13 366.757 1036.11 366.783 1035.43 367.568C1034.58 369.177 1034.2 370.99 1034.33 372.804V381.338C1034.26 383.708 1034.6 386.073 1035.33 388.328C1035.92 389.984 1037.06 391.382 1038.57 392.281C1040.07 393.119 1041.19 393.067 1041.77 392.124C1042.6 390.399 1042.95 388.482 1042.79 386.574L1042.84 378.38Z" fill="white" />
      </g>
      <g style="mix-blend-mode:screen">
        <path d="M933.149 336.624L927.128 333.143V306.256L919.902 304.66V299.031L932.495 301.099L933.149 301.466V336.624Z" fill="white" />
      </g>
      <g style="mix-blend-mode:screen">
        <path d="M1045.2 660.095L1039.18 656.613V629.701L1031.98 628.104V622.476L1044.57 624.544L1045.22 624.91L1045.2 660.095Z" fill="white" />
      </g>
      <g style="mix-blend-mode:screen">
        <path d="M1048.86 582.971C1048.86 587.84 1048 591.034 1046.24 592.605C1044.49 594.176 1041.98 593.992 1038.6 592.055C1035.31 590.155 1032.66 587.31 1031.01 583.887C1029.21 580.002 1028.31 575.759 1028.39 571.478V565.012C1028.39 560.09 1029.28 556.896 1031.01 555.378C1032.73 553.86 1035.3 554.043 1038.63 555.954C1041.92 557.854 1044.56 560.7 1046.22 564.122C1048.03 567.994 1048.93 572.231 1048.84 576.505L1048.86 582.971ZM1042.84 572.499C1042.92 570.134 1042.57 567.773 1041.79 565.536C1041.19 563.921 1040.06 562.562 1038.57 561.687C1037.13 560.85 1036.11 560.876 1035.43 561.687C1034.58 563.294 1034.2 565.109 1034.33 566.923V575.484C1034.26 577.845 1034.6 580.201 1035.33 582.447C1035.91 584.108 1037.06 585.508 1038.57 586.4C1040.07 587.264 1041.19 587.212 1041.77 586.27C1042.6 584.544 1042.95 582.628 1042.79 580.72L1042.84 572.499Z" fill="white" />
      </g>
      <g style="mix-blend-mode:screen">
        <path d="M1101.22 433.671L1095.2 430.189V403.277L1088 401.68V396.078L1100.59 398.146L1101.25 398.512L1101.22 433.671Z" fill="white" />
      </g>
      <g style="mix-blend-mode:screen">
        <path d="M1104.89 307.016C1104.89 311.885 1104.02 315.079 1102.27 316.65C1100.51 318.221 1098 318.037 1094.62 316.1C1091.33 314.2 1088.69 311.355 1087.03 307.932C1085.23 304.038 1084.34 299.787 1084.41 295.497V289.057C1084.41 284.135 1085.3 280.941 1087.03 279.397C1088.76 277.852 1091.32 278.088 1094.65 279.999C1097.94 281.899 1100.59 284.745 1102.24 288.167C1104.06 292.038 1104.95 296.276 1104.86 300.55L1104.89 307.016ZM1098.86 296.413C1098.94 294.048 1098.59 291.688 1097.82 289.45C1097.22 287.834 1096.08 286.474 1094.6 285.601C1093.18 284.781 1092.14 284.781 1091.46 285.601C1090.61 287.209 1090.24 289.025 1090.38 290.837V299.398C1090.31 301.759 1090.65 304.115 1091.38 306.361C1091.97 308.016 1093.11 309.414 1094.62 310.315C1096.12 311.178 1097.24 311.126 1097.82 310.157C1098.65 308.432 1099.01 306.517 1098.86 304.607V296.413Z" fill="white" />
      </g>
      <g style="mix-blend-mode:screen">
        <path d="M1549.43 517.13L1543.41 513.648V486.788L1536.21 485.192V479.563L1548.83 481.631L1549.49 481.998L1549.43 517.13Z" fill="#00C1AA" />
      </g>
      <g style="mix-blend-mode:screen">
        <path d="M1549.43 387.779L1543.41 384.297V357.437L1536.21 355.84V350.238L1548.83 352.306L1549.49 352.672L1549.43 387.779Z" fill="#00C1AA" />
      </g>
      <g style="mix-blend-mode:screen">
        <path d="M1549.43 323.09L1543.41 319.608V292.696L1536.21 291.099V285.497L1548.83 287.539L1549.49 287.931L1549.43 323.09Z" fill="#00C1AA" />
      </g>
      <g style="mix-blend-mode:screen">
        <path d="M1553.1 440.033C1553.1 444.902 1552.24 448.122 1550.48 449.667C1548.73 451.211 1546.21 451.08 1542.84 449.117C1539.54 447.217 1536.9 444.371 1535.25 440.949C1533.45 437.064 1532.55 432.821 1532.63 428.54V422.074C1532.63 417.178 1533.52 413.958 1535.25 412.44C1536.97 410.921 1539.54 411.105 1542.86 413.016C1546.16 414.916 1548.8 417.761 1550.46 421.184C1552.26 425.056 1553.16 429.293 1553.07 433.567L1553.1 440.033ZM1547.08 429.561C1547.16 427.195 1546.8 424.835 1546.03 422.597C1545.43 420.982 1544.3 419.623 1542.81 418.749C1541.37 417.911 1540.35 417.964 1539.67 418.749C1538.82 420.357 1538.44 422.171 1538.57 423.985V432.519C1538.5 434.881 1538.83 437.237 1539.56 439.483C1540.14 441.151 1541.29 442.56 1542.81 443.462C1544.3 444.3 1545.43 444.248 1546 443.305C1546.84 441.58 1547.19 439.663 1547.03 437.755L1547.08 429.561Z" fill="#00C1AA" />
      </g>
      <g style="mix-blend-mode:screen">
        <path d="M1605.46 646.561L1599.44 643.079V616.167L1592.24 614.57V608.941L1604.83 611.009L1605.48 611.402L1605.46 646.561Z" fill="white" />
      </g>
    </g>
    <path style="mix-blend-mode:multiply" d="M1894.9 878.404L1866.26 861.884C1857.72 856.963 1836.78 852.931 1819.68 852.931H1076.69C1059.59 852.931 701.961 1076.68 701.961 1076.68C693.426 1081.61 693.426 1089.77 701.961 1094.59L1223.4 1395.65C1228.23 1398.2 1233.64 1399.47 1239.11 1399.34H1252.67L1619.75 1187.29L1634.91 1178.55H1895L1894.9 878.404Z" fill="url(#paint9_linear)" />
    <path d="M1616.85 1145.8C1616.85 1156.09 1609.57 1160.28 1600.69 1155.14L1057.81 841.752C1053.11 838.681 1049.2 834.548 1046.39 829.687C1043.58 824.826 1041.95 819.373 1041.64 813.767V404.245C1041.64 393.983 1048.91 389.794 1057.81 394.926L1600.69 708.238C1605.39 711.314 1609.29 715.449 1612.1 720.309C1614.9 725.17 1616.53 730.621 1616.85 736.224V1145.8Z" fill="#0055B2" />
    <path d="M1613.02 701.301L1070.01 387.883C1065.51 385.266 1061.43 385.082 1058.5 386.836L1046.87 393.564C1048.66 392.874 1050.6 392.638 1052.5 392.875C1054.41 393.113 1056.22 393.817 1057.79 394.926L1600.69 708.239C1605.39 711.314 1609.29 715.449 1612.1 720.309C1614.91 725.17 1616.53 730.621 1616.85 736.224V1145.8C1616.85 1151.03 1615.04 1154.49 1612.16 1156.27L1623.76 1149.54C1627 1148.02 1628.99 1144.31 1628.99 1138.83V729.182C1628.68 723.613 1627.08 718.193 1624.3 713.353C1621.53 708.513 1617.67 704.387 1613.02 701.301Z" fill="url(#paint10_linear)" />
    <path d="M1600.69 1130.06L1057.81 816.62V413.591L1600.69 727.009V1130.06Z" fill="url(#paint11_linear)" />
    <path d="M1232.56 1374.76C1227.55 1377.3 1222.01 1378.63 1216.4 1378.63C1210.78 1378.63 1205.24 1377.3 1200.23 1374.76L657.482 1061.34C648.607 1056.11 648.607 1047.81 657.482 1042.68L1027.53 829.056C1032.53 826.525 1038.07 825.206 1043.68 825.206C1049.29 825.206 1054.82 826.525 1059.83 829.056L1602.55 1142.47C1611.45 1147.71 1611.45 1156.01 1602.55 1161.14L1232.56 1374.76Z" fill="#006FFF" />
    <path d="M1060.28 873.508L1033.73 858.167L1047 850.497L1073.55 865.838L1060.28 873.508Z" fill="#159BFF" />
    <path d="M1104.99 899.321L1078.44 883.98L1091.72 876.309L1118.26 891.65L1104.99 899.321Z" fill="#159BFF" />
    <path d="M1149.7 925.134L1123.16 909.793L1136.43 902.122L1162.98 917.463L1149.7 925.134Z" fill="#159BFF" />
    <path d="M1194.42 950.946L1167.87 935.631L1181.14 927.961L1207.69 943.276L1194.42 950.946Z" fill="#159BFF" />
    <path d="M1239.13 976.759L1212.59 961.418L1225.86 953.774L1252.4 969.089L1239.13 976.759Z" fill="#159BFF" />
    <path d="M1283.85 1002.57L1257.3 987.256L1270.57 979.586L1297.12 994.901L1283.85 1002.57Z" fill="#159BFF" />
    <path d="M1328.56 1028.41L1302.01 1013.07L1315.29 1005.4L1341.83 1020.74L1328.56 1028.41Z" fill="#159BFF" />
    <path d="M1373.27 1054.2L1346.73 1038.88L1360 1031.21L1386.55 1046.55L1373.27 1054.2Z" fill="#159BFF" />
    <path d="M1417.99 1080.04L1391.44 1064.69L1404.72 1057.02L1431.29 1072.37L1417.99 1080.04Z" fill="#159BFF" />
    <path d="M1462.7 1105.85L1436.16 1090.51L1449.43 1082.86L1475.98 1098.18L1462.7 1105.85Z" fill="#159BFF" />
    <path d="M1507.42 1131.66L1480.87 1116.32L1494.17 1108.68L1520.72 1123.99L1507.42 1131.66Z" fill="#159BFF" />
    <path d="M1552.16 1157.47L1525.58 1142.16L1538.86 1134.49L1565.43 1149.8L1552.16 1157.47Z" fill="#159BFF" />
    <path d="M1036.74 911.547L989.016 883.98L1015.56 868.665L1063.29 896.206L1036.74 911.547Z" fill="#159BFF" />
    <path d="M1012.05 946.784L946.16 908.719L972.706 893.404L1038.6 931.443L1012.05 946.784Z" fill="#159BFF" />
    <path d="M985.507 983.068L901.446 934.532L927.992 919.217L1012.03 967.754L985.507 983.068Z" fill="#159BFF" />
    <path d="M895.058 993.33L847.334 965.79L883.278 945.03L931.002 972.597L895.058 993.33Z" fill="#159BFF" />
    <path d="M960.951 1031.4L913.227 1003.83L949.171 983.068L996.895 1010.64L960.951 1031.4Z" fill="#159BFF" />
    <path d="M1026.84 1069.43L979.12 1041.87L1015.06 1021.13L1062.79 1048.67L1026.84 1069.43Z" fill="#159BFF" />
    <path d="M1254.05 1200.62L1206.33 1173.05L1242.27 1152.32L1290.02 1179.86L1254.05 1200.62Z" fill="#159BFF" />
    <path d="M1365.73 1265.1L1272.12 1211.04L1308.06 1190.28L1401.68 1244.34L1365.73 1265.1Z" fill="#159BFF" />
    <path d="M1188.27 1162.63L1045.01 1079.93L1080.96 1059.17L1224.24 1141.87L1188.27 1162.63Z" fill="#159BFF" />
    <path d="M1093.97 944.585L1054.91 922.045L1081.45 906.704L1120.51 929.244L1093.97 944.585Z" fill="#159BFF" />
    <path d="M1069.28 979.822L1030.22 957.255L1056.77 941.94L1095.83 964.481L1069.28 979.822Z" fill="#159BFF" />
    <path d="M1043.97 1015.43L1004.88 992.859L1031.45 977.544L1070.51 1000.08L1043.97 1015.43Z" fill="#159BFF" />
    <path d="M1101.19 1048.44L1062.11 1025.9L1088.68 1010.58L1127.74 1033.12L1101.19 1048.44Z" fill="#159BFF" />
    <path d="M1158.4 1081.5L1119.34 1058.93L1145.88 1043.62L1184.97 1066.16L1158.4 1081.5Z" fill="#159BFF" />
    <path d="M1215.65 1114.54L1176.56 1091.97L1203.11 1076.66L1242.19 1099.2L1215.65 1114.54Z" fill="#159BFF" />
    <path d="M1272.88 1147.58L1233.82 1125.01L1260.36 1109.7L1299.42 1132.26L1272.88 1147.58Z" fill="#159BFF" />
    <path d="M1330.08 1180.62L1291.02 1158.08L1317.59 1142.74L1356.65 1165.28L1330.08 1180.62Z" fill="#159BFF" />
    <path d="M1421.08 1233.16L1348.27 1191.11L1374.79 1175.77L1447.62 1217.82L1421.08 1233.16Z" fill="#159BFF" />
    <path d="M1126.51 1012.86L1087.45 990.293L1114 974.979L1153.05 997.519L1126.51 1012.86Z" fill="#159BFF" />
    <path d="M1183.74 1045.9L1144.68 1023.33L1171.22 1008.02L1210.28 1030.56L1183.74 1045.9Z" fill="#159BFF" />
    <path d="M1240.96 1078.94L1201.9 1056.4L1228.45 1041.05L1267.51 1063.62L1240.96 1078.94Z" fill="#159BFF" />
    <path d="M1298.19 1111.97L1259.13 1089.43L1285.68 1074.09L1324.74 1096.66L1298.19 1111.97Z" fill="#159BFF" />
    <path d="M1355.42 1145.01L1316.36 1122.47L1342.91 1107.13L1381.97 1129.7L1355.42 1145.01Z" fill="#159BFF" />
    <path d="M1464.56 1208.03L1373.59 1155.51L1400.13 1140.17L1491.13 1192.71L1464.56 1208.03Z" fill="#159BFF" />
    <path d="M1151.2 977.623L1112.14 955.082L1138.68 939.741L1177.74 962.308L1151.2 977.623Z" fill="#159BFF" />
    <path d="M1208.42 1010.66L1169.36 988.121L1195.91 972.78L1234.97 995.32L1208.42 1010.66Z" fill="#159BFF" />
    <path d="M1265.65 1043.7L1226.59 1021.16L1253.14 1005.82L1292.2 1028.38L1265.65 1043.7Z" fill="#159BFF" />
    <path d="M1322.88 1076.74L1283.82 1054.2L1310.37 1038.86L1349.42 1061.42L1322.88 1076.74Z" fill="#159BFF" />
    <path d="M1380.11 1109.78L1341.05 1087.24L1367.59 1071.92L1406.65 1094.46L1380.11 1109.78Z" fill="#159BFF" />
    <path d="M1437.33 1142.81L1398.28 1120.27L1424.82 1104.96L1463.88 1127.5L1437.33 1142.81Z" fill="#159BFF" />
    <path d="M1507.42 1183.29L1455.5 1153.31L1482.05 1138L1533.99 1167.97L1507.42 1183.29Z" fill="#159BFF" />
    <path d="M1532.76 1117.03L1103.76 869.372L1116.67 861.911L1545.64 1109.59L1532.76 1117.03Z" fill="#006FFF" />
    <path d="M1188.27 1194.65L969.355 1068.26L833.328 1146.79L1052.24 1273.16L1188.27 1194.65Z" fill="#159BFF" />
    <path d="M1602.55 1161.14L1232.56 1374.76C1224.47 1378.89 1215.13 1379.82 1206.38 1377.38C1206.38 1377.38 1201.15 1375.34 1200.26 1374.76L657.482 1061.34C656.88 1060.98 656.304 1060.61 655.78 1060.22L655.388 1059.88L654.498 1059.14L654.079 1058.75C653.752 1058.43 653.446 1058.09 653.162 1057.73V1057.6C652.856 1057.2 652.577 1056.78 652.325 1056.34C651.619 1055.17 651.215 1053.84 651.147 1052.47V1060.32C651.147 1063.73 653.267 1067.16 657.744 1069.75L1200.23 1383.01C1213.19 1389.45 1231.64 1388.24 1237.19 1386.99C1242.74 1385.73 1247.67 1384.37 1253.43 1383.14L1602.58 1181.56C1607.08 1178.94 1609.31 1175.54 1609.23 1172.11V1151.9C1609.2 1155.25 1606.98 1158.52 1602.55 1161.14Z" fill="url(#paint12_linear)" />
    <path style="mix-blend-mode:multiply" d="M755.288 1039.48L662.299 1039.82L809.479 954.847L902.467 954.507L755.288 1039.48Z" fill="url(#paint13_linear)" />
    <g style="mix-blend-mode:screen">
      <path d="M1526.84 1153.29L1027.6 865.131C1015.54 858.193 1005.77 841.281 1005.77 827.354V474.694C1005.77 460.793 1015.54 455.138 1027.6 462.102L1526.84 750.335C1538.88 757.298 1548.65 774.21 1548.65 788.111V1140.8C1548.65 1154.7 1538.88 1160.33 1526.84 1153.29Z" fill="#386CA5" />
      <path d="M1526.84 1153.29L1027.6 865.131C1015.54 858.193 1005.77 841.281 1005.77 827.354V474.694C1005.77 460.793 1015.54 455.138 1027.6 462.102L1526.84 750.335C1538.88 757.298 1548.65 774.21 1548.65 788.111V1140.8C1548.65 1154.7 1538.88 1160.33 1526.84 1153.29Z" stroke="#81EAE4" stroke-miterlimit="10" />
    </g>
    <path style="mix-blend-mode:screen" d="M1334.87 1384.81L1286.67 1356.99L1313.06 1334.94L1361.02 1362.77L1334.87 1384.81Z" fill="url(#paint14_linear)" />
    <path d="M1307.17 1338.35L1286.67 1350.18V1356.99L1313.06 1341.75V1334.94L1307.17 1338.35Z" fill="#386CA5" />
    <g style="mix-blend-mode:screen">
      <path d="M1307.17 1338.35L1313.06 1341.75V1334.94L1307.17 1338.35Z" fill="#005E59" />
    </g>
    <path style="mix-blend-mode:screen" d="M1286.67 1350.18V1356.99L1313.06 1341.75L1307.17 1338.35L1286.67 1350.18Z" fill="url(#paint15_linear)" />
    <path style="mix-blend-mode:screen" d="M1387.7 1354.32L1339.48 1326.49L1365.89 1304.44L1413.83 1332.27L1387.7 1354.32Z" fill="url(#paint16_linear)" />
    <path d="M1360 1307.85L1339.48 1319.68V1326.49L1365.89 1311.25V1304.44L1360 1307.85Z" fill="#386CA5" />
    <g style="mix-blend-mode:screen">
      <path d="M1360 1307.85L1365.89 1311.25V1304.44L1360 1307.85Z" fill="#005E59" />
    </g>
    <path style="mix-blend-mode:screen" d="M1339.48 1319.68V1326.49L1365.89 1311.25L1360 1307.85L1339.48 1319.68Z" fill="url(#paint17_linear)" />
    <g style="mix-blend-mode:screen">
      <g style="mix-blend-mode:screen">
        <path d="M1075.46 540.665L1050.9 526.476V517.654L1075.46 531.843V540.665Z" fill="#386CA5" />
      </g>
      <g style="mix-blend-mode:screen">
        <path d="M1304.61 672.975L1095.25 552.079V543.257L1304.61 664.153V672.975Z" fill="#386CA5" />
      </g>
      <g style="mix-blend-mode:screen">
        <path d="M1131.95 597.291L1050.9 550.482V541.66L1131.95 588.468V597.291Z" fill="#386CA5" />
      </g>
      <g style="mix-blend-mode:screen">
        <path d="M1304.61 696.981L1151.72 608.705V599.883L1304.61 688.159V696.981Z" fill="#386CA5" />
      </g>
      <g style="mix-blend-mode:screen">
        <path d="M1087.95 595.903L1050.9 574.515V565.692L1087.95 587.081V595.903Z" fill="#386CA5" />
      </g>
      <g style="mix-blend-mode:screen">
        <path d="M1304.61 720.987L1107.71 607.317V598.495L1304.61 712.165V720.987Z" fill="#00EEE7" />
      </g>
      <g style="mix-blend-mode:screen">
        <path d="M1077.45 613.836L1050.9 598.521V589.699L1077.45 605.04V613.836Z" fill="#5184BC" />
      </g>
      <g style="mix-blend-mode:screen">
        <path d="M1304.61 745.02L1097.21 625.25V616.454L1304.61 736.198V745.02Z" fill="#5184BC" />
      </g>
      <g style="mix-blend-mode:screen">
        <path d="M1087.95 643.916L1050.9 622.528V613.705L1087.95 635.094V643.916Z" fill="#5184BC" />
      </g>
      <g style="mix-blend-mode:screen">
        <path d="M1293.56 762.639L1096.66 648.969V640.146L1293.56 753.817V762.639Z" fill="#5184BC" />
      </g>
      <g style="mix-blend-mode:screen">
        <path d="M1087.95 667.949L1050.9 646.534V637.712L1087.95 659.126V667.949Z" fill="#00EEE7" />
      </g>
      <g style="mix-blend-mode:screen">
        <path d="M1304.61 793.033L1107.71 679.336V670.54L1304.61 784.21V793.033Z" fill="#5184BC" />
      </g>
      <g style="mix-blend-mode:screen">
        <path d="M1099.94 698.866L1062.89 677.478V668.655L1099.94 690.044V698.866Z" fill="#5184BC" />
      </g>
      <g style="mix-blend-mode:screen">
        <path d="M1304.61 817.039L1107.71 703.369V694.547L1304.61 808.243V817.039Z" fill="#81EAE4" />
      </g>
      <g style="mix-blend-mode:screen">
        <path d="M1074.88 708.422L1050.9 694.573V685.75L1074.88 699.599V708.422Z" fill="#5184BC" />
      </g>
      <g style="mix-blend-mode:screen">
        <path d="M1291.86 833.716L1081.9 712.48V703.657L1291.86 824.893V833.716Z" fill="#5184BC" />
      </g>
      <g style="mix-blend-mode:screen">
        <path d="M1087.95 739.967L1050.9 718.579V709.757L1087.95 731.145V739.967Z" fill="#5184BC" />
      </g>
      <g style="mix-blend-mode:screen">
        <path d="M1197.59 803.295L1107.71 751.382V742.559L1197.59 794.473V803.295Z" fill="#5184BC" />
      </g>
      <g style="mix-blend-mode:screen">
        <path d="M1087.95 764L1050.9 742.586V733.763L1087.95 755.178V764Z" fill="#81EAE4" />
      </g>
      <g style="mix-blend-mode:screen">
        <path d="M1304.61 889.085L1107.71 775.388V766.592L1304.61 880.262V889.085Z" fill="#7EB3ED" />
      </g>
      <g style="mix-blend-mode:screen">
        <path d="M1077.45 781.724L1050.9 766.618V757.796L1077.45 772.901V781.724Z" fill="#7EB3ED" />
      </g>
      <g style="mix-blend-mode:screen">
        <path d="M1261.04 887.907L1097.21 793.138V784.315L1261.04 879.11V887.907Z" fill="#7EB3ED" />
      </g>
      <g style="mix-blend-mode:screen">
        <path d="M1087.95 812.013L1050.9 790.624V781.802L1087.95 803.19V812.013Z" fill="#7EB3ED" />
      </g>
      <g style="mix-blend-mode:screen">
        <path d="M1304.61 937.123L1107.71 823.427V814.604L1304.61 928.301V937.123Z" fill="#81EAE4" />
      </g>
      <g style="mix-blend-mode:screen">
        <path d="M1087.95 836.019L1050.9 814.631V805.809L1087.95 827.197V836.019Z" fill="#7EB3ED" />
      </g>
      <g style="mix-blend-mode:screen">
        <path d="M1275.94 944.584L1107.71 847.433V838.611L1275.94 935.762V944.584Z" fill="#7EB3ED" />
      </g>
      <g style="mix-blend-mode:screen">
        <path d="M1114.31 875.21L1050.9 838.637V829.815L1114.31 866.387V875.21Z" fill="#81EAE4" />
      </g>
      <g style="mix-blend-mode:screen">
        <path d="M1213.14 932.333L1134.07 886.624V877.802L1213.14 923.511V932.333Z" fill="#7EB3ED" />
      </g>
    </g>
    <g style="mix-blend-mode:screen">
      <path d="M1504.38 931.338L1348.25 841.177C1343.01 838.219 1338.98 830.286 1338.98 823.454V699.73C1338.98 692.872 1343.14 689.73 1348.25 692.714L1504.38 782.85C1509.62 785.808 1513.67 793.74 1513.67 800.573V924.322C1513.67 931.155 1509.51 934.296 1504.38 931.338Z" fill="#386CA5" />
    </g>
    <g style="mix-blend-mode:screen">
      <path d="M1504.38 1111.03L1348.25 1020.9C1343.01 1017.94 1338.98 1009.98 1338.98 1003.15V879.425C1338.98 872.592 1343.14 869.451 1348.25 872.409L1504.38 962.544C1509.62 965.502 1513.67 973.461 1513.67 980.294V1104.02C1513.67 1110.85 1509.51 1114.02 1504.38 1111.03Z" fill="#00EEE7" />
    </g>
    <g style="mix-blend-mode:screen">
      <path d="M1352.23 726.198C1352.23 716.669 1358.93 712.794 1367.2 717.559C1371.56 720.402 1375.19 724.233 1377.79 728.741C1380.39 733.248 1381.89 738.306 1382.18 743.502C1382.18 753.058 1375.47 756.906 1367.2 752.142C1362.84 749.3 1359.21 745.469 1356.61 740.961C1354.01 736.453 1352.51 731.395 1352.23 726.198Z" fill="#81EAE4" />
    </g>
    <g style="mix-blend-mode:screen">
      <path d="M1404.85 770.283L1355.66 845.444L1467.05 909.819L1417.86 777.849C1415.03 770.231 1407.65 765.99 1404.85 770.283Z" fill="#00EEE7" />
    </g>
    <g style="mix-blend-mode:screen">
      <path d="M1500.22 928.93L1471.42 851.78C1468.59 844.214 1461.21 839.947 1458.33 844.267L1429.53 888.195L1500.22 928.93Z" fill="#81EAE4" />
    </g>
    <g style="mix-blend-mode:screen">
      <path d="M1443.67 965.24L1438.77 960.004L1409.32 1020.71L1414.19 1025.95L1443.67 965.24ZM1447.62 1030.5L1471.42 1018.96L1447.62 979.9L1444.01 982.335L1463.57 1014.43L1444.01 1023.91L1447.62 1030.5ZM1402.36 1004.33L1405.97 1001.89L1386.39 969.821L1405.97 960.318L1402.36 953.721L1378.54 965.266L1402.36 1004.33Z" fill="#81EAE4" />
    </g>
    <g style="mix-blend-mode:screen">
      <path d="M1804.13 896.729L1690.88 831.281C1682.77 826.595 1676.17 814.003 1676.17 803.191V677.766C1676.17 666.928 1682.77 662.058 1690.88 666.64L1804.13 732.088C1812.25 736.774 1818.84 749.366 1818.84 760.204V885.708C1818.79 896.493 1812.2 901.467 1804.13 896.729Z" fill="#005E59" />
      <path d="M1804.13 896.729L1690.88 831.281C1682.77 826.595 1676.17 814.003 1676.17 803.191V677.766C1676.17 666.928 1682.77 662.058 1690.88 666.64L1804.13 732.088C1812.25 736.774 1818.84 749.366 1818.84 760.204V885.708C1818.79 896.493 1812.2 901.467 1804.13 896.729Z" stroke="#00EEE7" stroke-miterlimit="10" />
    </g>
    <g style="mix-blend-mode:screen">
      <path d="M1816.67 1039.56L1755.41 1004.19C1753.01 1002.45 1751.05 1000.16 1749.68 997.521C1748.32 994.88 1747.59 991.957 1747.56 988.984V921.102C1747.56 915.238 1751.12 912.541 1755.41 915.081L1816.67 950.449C1819.08 952.196 1821.04 954.481 1822.4 957.122C1823.77 959.763 1824.49 962.687 1824.53 965.659V1033.54C1824.63 1039.41 1821.07 1042.1 1816.67 1039.56Z" fill="#183A60" />
      <path d="M1816.67 1039.56L1755.41 1004.19C1753.01 1002.45 1751.05 1000.16 1749.68 997.521C1748.32 994.88 1747.59 991.957 1747.56 988.984V921.102C1747.56 915.238 1751.12 912.541 1755.41 915.081L1816.67 950.449C1819.08 952.196 1821.04 954.481 1822.4 957.122C1823.77 959.763 1824.49 962.687 1824.53 965.659V1033.54C1824.63 1039.41 1821.07 1042.1 1816.67 1039.56Z" stroke="#7EB3ED" stroke-miterlimit="10" />
    </g>
    <g style="mix-blend-mode:screen">
      <path d="M871.131 655.88L732.381 736.015C722.407 741.748 714.343 735.648 714.343 722.376V568.651C714.343 555.378 722.407 539.854 732.381 534.225L871.131 454.091C881.105 448.331 889.168 454.431 889.168 467.704V621.533C889.168 634.937 881.105 650.226 871.131 655.88Z" fill="#183A60" />
      <path d="M871.131 655.88L732.381 736.015C722.407 741.748 714.343 735.648 714.343 722.376V568.651C714.343 555.378 722.407 539.854 732.381 534.225L871.131 454.091C881.105 448.331 889.168 454.431 889.168 467.704V621.533C889.168 634.937 881.105 650.226 871.131 655.88Z" stroke="#7EB3ED" stroke-miterlimit="10" />
    </g>
    <g style="mix-blend-mode:screen">
      <path d="M677.771 821.621L599.076 867.042C593.422 870.314 588.84 866.859 588.84 859.188V772.09C588.84 764.577 593.422 755.833 599.076 752.56L677.771 707.139C683.4 703.867 687.981 707.323 687.981 714.862V802.091C687.981 809.605 683.4 818.349 677.771 821.621Z" fill="#005E59" />
      <path d="M677.771 821.621L599.076 867.042C593.422 870.314 588.84 866.859 588.84 859.188V772.09C588.84 764.577 593.422 755.833 599.076 752.56L677.771 707.139C683.4 703.867 687.981 707.323 687.981 714.862V802.091C687.981 809.605 683.4 818.349 677.771 821.621Z" stroke="#00EEE7" stroke-miterlimit="10" />
    </g>
    <g style="mix-blend-mode:screen">
      <path d="M432.498 1342.93L307.126 1270.54C298.12 1265.31 299.272 1256.27 309.744 1250.28L430.168 1180.8C440.64 1174.81 456.347 1174.15 465.274 1179.36L590.621 1251.75C599.626 1256.98 598.474 1265.99 588.003 1271.98L467.578 1341.46C457.185 1347.46 441.477 1348.11 432.498 1342.93Z" fill="#183A60" />
      <path d="M432.498 1342.93L307.126 1270.54C298.12 1265.31 299.272 1256.27 309.744 1250.28L430.168 1180.8C440.64 1174.81 456.347 1174.15 465.274 1179.36L590.621 1251.75C599.626 1256.98 598.474 1265.99 588.003 1271.98L467.578 1341.46C457.185 1347.46 441.477 1348.11 432.498 1342.93Z" stroke="#7EB3ED" stroke-miterlimit="10" />
    </g>
    <g style="mix-blend-mode:multiply">
      <path d="M1791.78 984.22C1795 983.618 1797.19 980.424 1797.19 975.293C1797.08 971.233 1796 967.258 1794.07 963.689C1792.13 960.119 1789.38 957.054 1786.04 954.742C1779.89 951.208 1774.89 954.742 1774.89 962.413C1775.1 967.909 1776.99 973.209 1780.31 977.597C1770.88 975.817 1764.89 981.733 1764.92 989.377L1786.04 1001.58L1807.2 1013.78C1807.2 1006.13 1801.2 993.304 1791.78 984.22Z" fill="#CEDBEA" />
    </g>
    <g style="mix-blend-mode:multiply">
      <path d="M407.471 1261.14V1286.49H451.373C475.615 1286.49 495.276 1275.12 495.276 1261.14C495.276 1247.16 475.615 1235.8 451.373 1235.8C427.131 1235.8 407.471 1247.14 407.471 1261.14ZM436.713 1252.77C441.25 1250.46 446.269 1249.25 451.36 1249.25C456.451 1249.25 461.47 1250.46 466.007 1252.77C474.097 1257.43 474.097 1264.99 466.007 1269.68C461.467 1271.98 456.449 1273.17 451.36 1273.17C446.271 1273.17 441.253 1271.98 436.713 1269.68C428.623 1264.91 428.65 1257.35 436.713 1252.77Z" fill="#CEDBEA" />
    </g>
    <g style="mix-blend-mode:screen">
      <g style="mix-blend-mode:screen">
        <path d="M654.303 787.781C661.857 774.636 661.832 760.446 654.247 756.087C646.662 751.728 634.389 758.85 626.835 771.995C619.28 785.14 619.305 799.33 626.89 803.689C634.475 808.048 646.748 800.926 654.303 787.781Z" stroke="#81EAE4" stroke-width="1.00344" stroke-linecap="round" stroke-linejoin="round" />
      </g>
      <g style="mix-blend-mode:screen">
        <path d="M650.204 794.997L662.247 801.961" stroke="#81EAE4" stroke-linecap="round" stroke-linejoin="round" />
      </g>
    </g>
    <g style="mix-blend-mode:screen">
      <path d="M1748.19 777.902C1745.84 776.464 1743.9 774.433 1742.58 772.012C1741.15 769.637 1740.36 766.931 1740.28 764.158C1740.28 759.131 1743.82 757.089 1748.13 759.603C1750.42 761.112 1752.33 763.137 1753.69 765.515C1755.05 767.893 1755.84 770.557 1755.99 773.294L1763.16 777.431C1762.91 772.937 1761.76 768.539 1759.79 764.493C1757.81 760.448 1755.05 756.836 1751.67 753.869V747.508L1744.47 743.372V749.916C1737.87 747.979 1732.95 752.011 1732.95 760.179C1733.23 765.424 1734.74 770.53 1737.37 775.079C1739.99 779.629 1743.65 783.493 1748.06 786.358C1750.35 787.87 1752.25 789.899 1753.62 792.282C1754.98 794.665 1755.77 797.334 1755.91 800.076C1755.91 805.102 1752.35 807.144 1748.06 804.631C1745.76 803.12 1743.86 801.091 1742.49 798.708C1741.13 796.325 1740.34 793.655 1740.2 790.913L1733 786.777C1733.27 791.271 1734.42 795.667 1736.4 799.711C1738.38 803.756 1741.14 807.368 1744.52 810.338V816.385L1751.72 820.522V814.474C1758.29 816.438 1763.21 812.406 1763.21 804.238C1762.96 798.976 1761.46 793.849 1758.85 789.273C1756.24 784.697 1752.59 780.801 1748.19 777.902Z" fill="#81EAE4" />
    </g>
    <g style="mix-blend-mode:multiply">
      <path d="M797.934 560.326C803.17 563.363 808.406 565.326 815.579 561.111C822.464 557.132 827.621 549.697 833.25 539.932V584.882C833.25 610.642 811.102 646.875 797.934 659.676C784.844 662.085 762.618 651.404 762.618 625.643V580.72C767.854 583.73 773.09 585.72 780.289 581.479C787.148 577.526 792.305 570.091 797.934 560.326Z" fill="#CEDBEA" />
    </g>
    <path style="mix-blend-mode:multiply" d="M874.063 1400.57H757.827V1421.94H874.063V1400.57Z" fill="url(#paint18_linear)" />
    <path style="mix-blend-mode:multiply" d="M818.877 1380.29H699.342V1402.25H818.877V1380.29Z" fill="url(#paint19_linear)" />
    <path d="M686.724 1395.5C686.724 1378.22 697.667 1377.72 697.667 1377.72C703.046 1377.33 708.311 1375.98 713.217 1373.74C722.694 1369.79 736.072 1371.31 728.611 1385.1L728.349 1385.63C727.716 1386.52 726.882 1387.24 725.914 1387.75L701.986 1401.78C698.374 1403.85 686.802 1399.03 686.724 1395.5Z" fill="url(#paint20_linear)" />
    <path d="M686.777 1393.92C686.986 1397.49 698.4 1402.2 702.013 1400.13L725.914 1386.12C727.11 1385.4 728.24 1384.58 729.292 1383.66C729.082 1384.13 728.873 1384.61 728.611 1385.1L728.349 1385.63C727.716 1386.52 726.882 1387.24 725.914 1387.75L701.987 1401.78C698.583 1403.72 688.216 1399.63 686.855 1396.18C686.779 1395.95 686.735 1395.71 686.724 1395.47C686.715 1394.95 686.733 1394.44 686.777 1393.92Z" fill="#0C223A" />
    <path d="M691.175 1375.44C695.468 1376.04 699.718 1376.91 703.898 1378.06C703.954 1379 704.262 1379.9 704.788 1380.68L705.076 1381.02C707.013 1382.38 709.003 1384.53 704.369 1387.43C703.134 1388.34 701.613 1388.78 700.082 1388.67C698.551 1388.56 697.11 1387.91 696.018 1386.83C695.437 1385.6 694.532 1384.55 693.4 1383.79C692.616 1383.24 691.723 1382.87 690.782 1382.69C690.786 1382.62 690.786 1382.54 690.782 1382.46C690.782 1382.46 689.997 1375.44 691.175 1375.44Z" fill="white" />
    <path d="M690.991 1206.66L739.606 1207.55C735.601 1240.04 727.485 1269.52 722.092 1301.01C716.28 1331.59 709.762 1353.06 704.055 1378.51C701.96 1383.24 692.405 1381.46 690.468 1376.91C688.949 1353.35 687.221 1324.92 694.159 1297.87C693.007 1268.74 690.311 1236.12 690.991 1206.66Z" fill="#0C223A" />
    <path d="M740.68 1414.71C740.68 1397.46 751.596 1396.96 751.596 1396.96C756.978 1396.57 762.245 1395.21 767.147 1392.96C776.65 1389.03 790.027 1390.55 782.54 1404.34C782.472 1404.52 782.394 1404.68 782.304 1404.84C781.667 1405.73 780.834 1406.47 779.87 1406.99L755.968 1420.99C752.329 1423.09 740.758 1418.27 740.68 1414.71Z" fill="url(#paint21_linear)" />
    <path d="M740.732 1413.17C740.941 1416.7 752.356 1421.44 755.968 1419.37L779.87 1405.37C781.061 1404.64 782.19 1403.82 783.247 1402.9C783.011 1403.38 782.828 1403.82 782.54 1404.34C782.472 1404.52 782.394 1404.68 782.305 1404.84C781.667 1405.73 780.834 1406.47 779.87 1406.99L755.968 1420.99C752.565 1422.96 742.198 1418.85 740.811 1415.42C740.792 1415.18 740.792 1414.95 740.811 1414.71C740.758 1414.2 740.732 1413.68 740.732 1413.17Z" fill="#0C223A" />
    <path d="M745.13 1394.68C749.423 1395.28 753.673 1396.16 757.853 1397.3C757.931 1398.23 758.227 1399.13 758.717 1399.92L759.005 1400.23C760.969 1401.6 762.958 1403.74 758.325 1406.67C757.085 1407.59 755.56 1408.03 754.025 1407.92C752.489 1407.81 751.043 1407.15 749.947 1406.07C749.364 1404.84 748.46 1403.78 747.329 1403.01C746.543 1402.47 745.651 1402.1 744.711 1401.94C744.716 1401.86 744.716 1401.78 744.711 1401.7C744.711 1401.7 743.874 1394.68 745.13 1394.68Z" fill="white" />
    <path d="M724.736 1271.43C721.778 1257.48 687.719 1255.72 689.944 1200.75C700.625 1199.18 754.58 1224.49 765.262 1222.9C766.597 1255.62 763.455 1286.04 763.246 1317.98C762.513 1349.08 759.581 1371.36 758.01 1397.38C756.701 1402.41 746.989 1402.2 744.344 1398.01C739.109 1375.13 732.642 1347.25 735.077 1319.47C731.988 1304.13 728.166 1287.79 724.736 1271.43Z" fill="url(#paint22_linear)" />
    <path d="M711.673 1099.67C686.855 1116.79 675.022 1138.94 673.792 1149.41C671.828 1166.19 679.551 1177.42 691.122 1204.65C691.122 1204.65 691.541 1186.61 691.672 1179.86C690.415 1175.69 686.777 1162.84 687.798 1156.3C688.688 1150.46 705.835 1137.58 707.982 1131.29C713.244 1115.8 703.557 1111.01 711.673 1099.67Z" fill="white" />
    <path d="M833.878 1069.28C835.71 1065.59 837.569 1063.8 839.297 1063.91L841.6 1061.68C845.999 1057.47 853.983 1055.93 854.69 1057.76C855.057 1058.88 850.999 1059.67 848.224 1061.34C846.914 1062.15 845.811 1063.25 845.004 1064.56C845.004 1064.56 851.575 1068.65 848.721 1074.38C846.391 1079.04 844.794 1075.95 845.239 1075.04C841.103 1078.86 840.396 1075.04 837.647 1078.44L831.835 1071.42L833.878 1069.28Z" fill="#81EAE4" />
    <path d="M830.788 1071.53C828.459 1072.68 804.374 1094.17 795.577 1100.53C786.441 1103.41 773.142 1107.76 766.204 1109.49C760.969 1109.93 758.167 1109.88 748.795 1104.91C741.459 1101.36 733.631 1098.94 725.574 1097.73C693.897 1091.27 686.75 1150.09 689.394 1210.3C693.845 1225.09 700.652 1227.87 714.108 1233.18C725.339 1237.63 759.633 1244.36 768.534 1229C765.471 1199.57 759.764 1166.79 765.445 1138.49C778.954 1131.66 795.473 1128.02 807.332 1118.15C825.657 1102.94 834.087 1084.62 837.49 1079.77C838.878 1077.89 836.208 1070.79 830.788 1071.53Z" fill="url(#paint23_linear)" />
    <path style="mix-blend-mode:screen" d="M807.41 1118.15C804.373 1120.48 775.76 1133.18 763.403 1135.51C751.046 1137.84 756.282 1138.62 757.303 1145.54C758.717 1155.01 760.209 1194.54 766.571 1211.8C763.691 1187.19 760.837 1161.4 765.445 1138.49C778.953 1131.66 795.473 1128.1 807.41 1118.15Z" fill="url(#paint24_linear)" />
    <path d="M714.369 1098.57C721.438 1093.33 720.391 1090.09 719.317 1083.12C717.912 1079.27 717.194 1075.21 717.197 1071.11C717.197 1055.58 727.066 1042.18 739.187 1042.99C763.586 1044.67 759.267 1057.52 759.267 1073.05C759.267 1087.42 752.722 1097.31 741.831 1098.99C741.831 1101.35 744.109 1102.81 747.067 1104.02C739.213 1108.81 727.145 1109.57 721.831 1107.5C716.516 1105.43 711.045 1102 714.369 1098.57Z" fill="#81EAE4" />
    <path d="M720.312 1042C724.579 1037.89 729.527 1041.84 731.988 1040.56L733.323 1039.9C736.569 1037.97 735.025 1036.55 738.009 1034.67C740.994 1032.78 743.847 1035.35 745.863 1034.67C750.418 1033.23 754.529 1032.65 756.335 1034.3C757.254 1035.21 758.039 1036.25 758.665 1037.39C760.209 1040.01 765.498 1036.66 765.183 1042.21C764.869 1047.76 762.906 1049.14 762.094 1057.1C762.094 1057.57 762.094 1058.02 761.963 1058.49V1058.75C761.849 1060.54 761.353 1062.28 760.508 1063.85C759.664 1065.43 758.49 1066.8 757.068 1067.89C754.45 1070.51 754.607 1068.05 754.45 1067.02C754.214 1065.14 753.691 1063.44 752.539 1063.52C751.387 1063.59 749.136 1064.17 747.958 1069.17C747.12 1072.78 749.555 1071.97 749.345 1072.97C746.073 1087.65 740.575 1086.55 734.344 1088.31C731.923 1089.06 729.375 1089.32 726.852 1089.07C724.328 1088.82 721.882 1088.06 719.658 1086.84C718.139 1081.21 717.563 1077.91 716.83 1075.3C715.892 1070.02 715.892 1064.61 716.83 1059.33C718.584 1052.57 716.254 1045.95 720.312 1042Z" fill="#183A60" />
    <path d="M747.067 1104.02C747.016 1103.56 746.86 1103.13 746.612 1102.74C746.364 1102.36 746.03 1102.04 745.637 1101.8C745.244 1101.57 744.802 1101.43 744.346 1101.4C743.89 1101.36 743.433 1101.43 743.009 1101.61C734.972 1105.25 724.684 1105.19 718.322 1101.61C717.492 1101.28 716.796 1100.69 716.349 1099.92C715.901 1099.15 715.73 1098.25 715.861 1097.37C715.27 1097.35 714.69 1097.53 714.214 1097.88C713.739 1098.23 713.397 1098.73 713.243 1099.3C712.942 1100.41 713.039 1101.59 713.517 1102.63C713.996 1103.68 714.825 1104.52 715.861 1105.01C719.212 1107.58 730.783 1113.23 747.067 1104.02Z" fill="url(#paint25_linear)" />
    <path style="mix-blend-mode:screen" d="M830.788 1071.53C828.458 1072.68 804.374 1094.17 795.577 1100.53C786.441 1103.41 773.142 1107.76 766.204 1109.49C760.968 1109.93 758.167 1109.88 748.795 1104.91C748.01 1104.49 747.879 1104.38 747.067 1104.02C751.4 1107.85 756.727 1110.38 762.434 1111.32C772.095 1112.55 791.493 1105.17 797.384 1101.92C803.274 1098.68 826.181 1076.16 829.401 1074.3C833.485 1071.84 836.6 1077.13 837.831 1079.07C838.328 1076.55 835.658 1070.87 830.788 1071.53Z" fill="url(#paint26_linear)" />
    <path style="mix-blend-mode:screen" d="M758.639 1037.55C758.013 1036.41 757.228 1035.37 756.309 1034.46C754.502 1032.81 750.392 1033.38 745.837 1034.82C744.371 1035.32 742.329 1034.01 740.13 1034.17C744.659 1036.79 747.591 1036.53 753.219 1036C755.837 1035.74 756.256 1040.9 758.298 1040.9C760.34 1040.9 762.539 1043.52 761.571 1047.6C760.714 1053.2 760.276 1058.85 760.262 1064.51C761.283 1062.81 761.885 1060.89 762.016 1058.91V1058.65C762.016 1058.18 762.016 1057.73 762.147 1057.26C762.958 1049.41 764.922 1047.57 765.236 1042.36C765.55 1037.15 760.183 1040.11 758.639 1037.55Z" fill="url(#paint27_linear)" />
    <path style="mix-blend-mode:screen" d="M872.187 1081.31C879.675 1076.99 879.673 1062.97 872.184 1049.99C864.694 1037.02 852.553 1030.01 845.065 1034.33C837.577 1038.66 837.579 1052.68 845.068 1065.65C852.558 1078.62 864.699 1085.63 872.187 1081.31Z" fill="url(#paint28_radial)" />
    <g style="mix-blend-mode:screen">
      <path d="M881.886 1098.11C894.733 1090.69 894.733 1066.64 881.887 1044.39C869.041 1022.14 848.212 1010.12 835.366 1017.53C822.519 1024.95 822.518 1049 835.364 1071.25C848.211 1093.5 869.039 1105.53 881.886 1098.11Z" stroke="#005E59" stroke-width="0.5" stroke-miterlimit="10" />
    </g>
    <path style="mix-blend-mode:multiply" d="M553.315 796.515H484.071L527.371 822.275L484.071 847.277H553.315L597.27 821.909L553.315 796.515Z" fill="url(#paint29_linear)" />
    <path d="M484.071 847.277L527.371 822.275V771.54L484.071 796.515V847.277Z" fill="#006FFF" />
    <path d="M484.071 847.277L440.796 822.275V771.54L484.071 796.515V847.277Z" fill="#278EFF" />
    <path d="M484.071 796.515L440.796 771.54L484.071 746.539L527.371 771.54L484.071 796.515Z" fill="#64B5FF" />
    <path style="mix-blend-mode:multiply" d="M1821.38 1435.21H1758.97L1797.98 1458.43L1758.97 1480.94H1821.38L1860.97 1458.09L1821.38 1435.21Z" fill="url(#paint30_linear)" />
    <path d="M1758.97 1480.94L1797.98 1458.43V1412.69L1758.97 1435.21V1480.94Z" fill="#006FFF" />
    <path d="M1758.97 1480.94L1719.97 1458.43V1412.69L1758.97 1435.21V1480.94Z" fill="#278EFF" />
    <path d="M1758.97 1435.21L1719.97 1412.69L1758.97 1390.18L1797.98 1412.69L1758.97 1435.21Z" fill="#64B5FF" />
    <path style="mix-blend-mode:multiply" d="M271.26 1341.46H224.347L253.668 1358.92L224.347 1375.86H271.26L301.052 1358.69L271.26 1341.46Z" fill="url(#paint31_linear)" />
    <path d="M224.347 1375.86L253.668 1358.92V1324.52L224.347 1341.46V1375.86Z" fill="#006FFF" />
    <path d="M224.347 1375.86L195 1358.92V1324.52L224.347 1341.46V1375.86Z" fill="#278EFF" />
    <path d="M224.347 1341.46L195 1324.52L224.347 1307.61L253.668 1324.52L224.347 1341.46Z" fill="#64B5FF" />
  </g>
  <defs>
    <linearGradient id="paint0_linear" x1="467.63" y1="996.943" x2="658.32" y2="996.943" gradientUnits="userSpaceOnUse">
      <stop stop-color="#88D8CC" />
      <stop offset="0.2" stop-color="#8CD9CE" />
      <stop offset="0.38" stop-color="#96DDD2" />
      <stop offset="0.56" stop-color="#A9E3DA" />
      <stop offset="0.72" stop-color="#C3EBE5" />
      <stop offset="0.89" stop-color="#E3F6F3" />
      <stop offset="1" stop-color="white" />
    </linearGradient>
    <linearGradient id="paint1_linear" x1="150901" y1="48600" x2="158208" y2="48600" gradientUnits="userSpaceOnUse">
      <stop stop-color="#88D8CC" />
      <stop offset="0.2" stop-color="#8CD9CE" />
      <stop offset="0.38" stop-color="#96DDD2" />
      <stop offset="0.56" stop-color="#A9E3DA" />
      <stop offset="0.72" stop-color="#C3EBE5" />
      <stop offset="0.89" stop-color="#E3F6F3" />
      <stop offset="1" stop-color="white" />
    </linearGradient>
    <linearGradient id="paint2_linear" x1="221796" y1="107153" x2="250307" y2="107153" gradientUnits="userSpaceOnUse">
      <stop stop-color="#88D8CC" />
      <stop offset="0.2" stop-color="#8CD9CE" />
      <stop offset="0.38" stop-color="#96DDD2" />
      <stop offset="0.56" stop-color="#A9E3DA" />
      <stop offset="0.72" stop-color="#C3EBE5" />
      <stop offset="0.89" stop-color="#E3F6F3" />
      <stop offset="1" stop-color="white" />
    </linearGradient>
    <linearGradient id="paint3_linear" x1="897.493" y1="1507.52" x2="1142.77" y2="1507.52" gradientUnits="userSpaceOnUse">
      <stop offset="0.38" stop-color="#00EEE7" />
      <stop offset="0.6" stop-color="#006FFF" />
    </linearGradient>
    <linearGradient id="paint4_linear" x1="1021.9" y1="1477.33" x2="1021.9" y2="1435.55" gradientUnits="userSpaceOnUse">
      <stop stop-color="white" />
      <stop offset="1" stop-color="#D4FFFC" />
    </linearGradient>
    <linearGradient id="paint5_linear" x1="116702" y1="39736.2" x2="130596" y2="39736.2" gradientUnits="userSpaceOnUse">
      <stop offset="0.38" stop-color="#00EEE7" />
      <stop offset="0.6" stop-color="#006FFF" />
    </linearGradient>
    <linearGradient id="paint6_linear" x1="29808.9" y1="13137.2" x2="29808.9" y2="12875.4" gradientUnits="userSpaceOnUse">
      <stop stop-color="white" />
      <stop offset="1" stop-color="#D4FFFC" />
    </linearGradient>
    <linearGradient id="paint7_linear" x1="130862" y1="39392.1" x2="136434" y2="39392.1" gradientUnits="userSpaceOnUse">
      <stop offset="0.38" stop-color="#00EEE7" />
      <stop offset="0.6" stop-color="#006FFF" />
    </linearGradient>
    <linearGradient id="paint8_linear" x1="1689.44" y1="1307.72" x2="1689.44" y2="1278.87" gradientUnits="userSpaceOnUse">
      <stop stop-color="#00EEE7" />
      <stop offset="0.04" stop-color="#00DFD9" />
      <stop offset="0.24" stop-color="#009C98" />
      <stop offset="0.44" stop-color="#006562" />
      <stop offset="0.62" stop-color="#003937" />
      <stop offset="0.77" stop-color="#001A19" />
      <stop offset="0.91" stop-color="#000707" />
      <stop offset="1" />
    </linearGradient>
    <linearGradient id="paint9_linear" x1="695.547" y1="1126.09" x2="1894.9" y2="1126.09" gradientUnits="userSpaceOnUse">
      <stop stop-color="#CEDBEA" />
      <stop offset="0.39" stop-color="#D0DDEB" />
      <stop offset="0.62" stop-color="#D9E3EF" />
      <stop offset="0.81" stop-color="#E7EDF5" />
      <stop offset="0.97" stop-color="#FBFCFD" />
      <stop offset="1" stop-color="white" />
    </linearGradient>
    <linearGradient id="paint10_linear" x1="1194.16" y1="308.508" x2="1665.72" y2="1125.3" gradientUnits="userSpaceOnUse">
      <stop offset="0.58" stop-color="#006FFF" />
      <stop offset="0.61" stop-color="#005ABC" />
    </linearGradient>
    <linearGradient id="paint11_linear" x1="1596.16" y1="1117.45" x2="1050.64" y2="411.052" gradientUnits="userSpaceOnUse">
      <stop stop-color="#005ABC" />
      <stop offset="1" stop-color="#0055B2" />
    </linearGradient>
    <linearGradient id="paint12_linear" x1="650.702" y1="1220.15" x2="1609.23" y2="1220.15" gradientUnits="userSpaceOnUse">
      <stop offset="0.56" stop-color="#159BFF" />
      <stop offset="0.61" stop-color="#005ABC" />
    </linearGradient>
    <linearGradient id="paint13_linear" x1="768.188" y1="986.114" x2="791.45" y2="1026.22" gradientUnits="userSpaceOnUse">
      <stop stop-color="#F1F1F6" />
      <stop offset="1" stop-color="white" />
    </linearGradient>
    <linearGradient id="paint14_linear" x1="1307.56" y1="1348.25" x2="1334.78" y2="1395.19" gradientUnits="userSpaceOnUse">
      <stop stop-color="#005E59" />
      <stop offset="0.14" stop-color="#004642" />
      <stop offset="0.34" stop-color="#002725" />
      <stop offset="0.55" stop-color="#001211" />
      <stop offset="0.74" stop-color="#000404" />
      <stop offset="0.92" />
    </linearGradient>
    <linearGradient id="paint15_linear" x1="1296.5" y1="1346.3" x2="1323.03" y2="1346.3" gradientUnits="userSpaceOnUse">
      <stop stop-color="#00EEE7" />
      <stop offset="0.23" stop-color="#00C9C3" />
      <stop offset="0.76" stop-color="#007C77" />
      <stop offset="1" stop-color="#005E59" />
    </linearGradient>
    <linearGradient id="paint16_linear" x1="76873.5" y1="29490.3" x2="78647.5" y2="29490.3" gradientUnits="userSpaceOnUse">
      <stop stop-color="#005E59" />
      <stop offset="0.14" stop-color="#004642" />
      <stop offset="0.34" stop-color="#002725" />
      <stop offset="0.55" stop-color="#001211" />
      <stop offset="0.74" stop-color="#000404" />
      <stop offset="0.92" />
    </linearGradient>
    <linearGradient id="paint17_linear" x1="26786.4" y1="12352.4" x2="27094.4" y2="12352.4" gradientUnits="userSpaceOnUse">
      <stop stop-color="#00EEE7" />
      <stop offset="0.23" stop-color="#00C9C3" />
      <stop offset="0.76" stop-color="#007C77" />
      <stop offset="1" stop-color="#005E59" />
    </linearGradient>
    <linearGradient id="paint18_linear" x1="757.827" y1="1411.26" x2="874.063" y2="1411.26" gradientUnits="userSpaceOnUse">
      <stop stop-color="#CEDBEA" />
      <stop offset="0.35" stop-color="#E9EFF5" />
      <stop offset="0.66" stop-color="#F9FBFD" />
      <stop offset="0.9" stop-color="white" />
    </linearGradient>
    <linearGradient id="paint19_linear" x1="107913" y1="15018.1" x2="113372" y2="15018.1" gradientUnits="userSpaceOnUse">
      <stop stop-color="#CEDBEA" />
      <stop offset="0.35" stop-color="#E9EFF5" />
      <stop offset="0.66" stop-color="#F9FBFD" />
      <stop offset="0.9" stop-color="white" />
    </linearGradient>
    <linearGradient id="paint20_linear" x1="730.784" y1="1387.07" x2="686.698" y2="1387.07" gradientUnits="userSpaceOnUse">
      <stop stop-color="#386CA5" />
      <stop offset="0.29" stop-color="#316196" />
      <stop offset="0.84" stop-color="#1E446D" />
      <stop offset="1" stop-color="#183A60" />
    </linearGradient>
    <linearGradient id="paint21_linear" x1="-39394" y1="20457.7" x2="-38652.2" y2="20457.7" gradientUnits="userSpaceOnUse">
      <stop stop-color="#386CA5" />
      <stop offset="0.29" stop-color="#316196" />
      <stop offset="0.84" stop-color="#1E446D" />
      <stop offset="1" stop-color="#183A60" />
    </linearGradient>
    <linearGradient id="paint22_linear" x1="765.602" y1="1300.99" x2="689.839" y2="1300.99" gradientUnits="userSpaceOnUse">
      <stop stop-color="#386CA5" />
      <stop offset="0.34" stop-color="#2B5788" />
      <stop offset="0.76" stop-color="#1D426B" />
      <stop offset="1" stop-color="#183A60" />
    </linearGradient>
    <linearGradient id="paint23_linear" x1="688.897" y1="1155.01" x2="837.909" y2="1155.01" gradientUnits="userSpaceOnUse">
      <stop offset="0.09" stop-color="white" />
      <stop offset="1" stop-color="white" />
    </linearGradient>
    <linearGradient id="paint24_linear" x1="781.362" y1="1211.8" x2="781.362" y2="1118.15" gradientUnits="userSpaceOnUse">
      <stop />
      <stop offset="0.16" stop-color="#002120" />
      <stop offset="0.52" stop-color="#007571" />
      <stop offset="1" stop-color="#00EEE7" />
    </linearGradient>
    <linearGradient id="paint25_linear" x1="25196.2" y1="7087.25" x2="25639.5" y2="7087.25" gradientUnits="userSpaceOnUse">
      <stop offset="0.09" stop-color="white" />
      <stop offset="1" stop-color="white" />
    </linearGradient>
    <linearGradient id="paint26_linear" x1="792.488" y1="1111.45" x2="792.488" y2="1071.48" gradientUnits="userSpaceOnUse">
      <stop stop-color="#005E59" />
      <stop offset="0.15" stop-color="#006C67" />
      <stop offset="0.42" stop-color="#00908B" />
      <stop offset="0.79" stop-color="#00CBC4" />
      <stop offset="1" stop-color="#00EEE7" />
    </linearGradient>
    <linearGradient id="paint27_linear" x1="752.644" y1="1064.49" x2="752.644" y2="1033.46" gradientUnits="userSpaceOnUse">
      <stop />
      <stop offset="0.64" stop-color="#00403C" />
      <stop offset="1" stop-color="#005E59" />
    </linearGradient>
    <radialGradient id="paint28_radial" cx="0" cy="0" r="1" gradientUnits="userSpaceOnUse" gradientTransform="translate(865.366 1069.34) rotate(30.1134) scale(22.2239 19.2023)">
      <stop stop-color="#00EEE7" />
      <stop offset="0.24" stop-color="#00D0C9" />
      <stop offset="0.77" stop-color="#00837D" />
      <stop offset="1" stop-color="#005E59" />
    </radialGradient>
    <linearGradient id="paint29_linear" x1="484.071" y1="821.883" x2="597.27" y2="821.883" gradientUnits="userSpaceOnUse">
      <stop stop-color="#CEDBEA" />
      <stop offset="0.29" stop-color="#E1E9F2" />
      <stop offset="0.72" stop-color="#F7F9FC" />
      <stop offset="1" stop-color="white" />
    </linearGradient>
    <linearGradient id="paint30_linear" x1="115967" y1="30999.2" x2="119941" y2="30999.2" gradientUnits="userSpaceOnUse">
      <stop stop-color="#CEDBEA" />
      <stop offset="0.29" stop-color="#E1E9F2" />
      <stop offset="0.72" stop-color="#F7F9FC" />
      <stop offset="1" stop-color="white" />
    </linearGradient>
    <linearGradient id="paint31_linear" x1="41150.3" y1="22271.9" x2="43397.8" y2="22271.9" gradientUnits="userSpaceOnUse">
      <stop stop-color="#CEDBEA" />
      <stop offset="0.29" stop-color="#E1E9F2" />
      <stop offset="0.72" stop-color="#F7F9FC" />
      <stop offset="1" stop-color="white" />
    </linearGradient>
    <clipPath id="clip0">
      <rect width="2089" height="1830" fill="white" />
    </clipPath>
  </defs>
</svg>
